<svg width="133" height="122" viewBox="0 0 133 122" fill="none" xmlns="http://www.w3.org/2000/svg">
<path fill-rule="evenodd" clip-rule="evenodd" d="M60.8398 88.9604C59.7353 88.9604 58.8398 88.065 58.8398 86.9604L58.8398 37.1893C58.8398 36.0847 59.7353 35.1893 60.8398 35.1893C61.9444 35.1893 62.8398 36.0847 62.8398 37.1893L62.8398 86.9604C62.8398 88.065 61.9444 88.9604 60.8398 88.9604Z" fill="#494949"/>
<path fill-rule="evenodd" clip-rule="evenodd" d="M62.8398 57.7842C62.8398 58.8887 61.9444 59.7842 60.8398 59.7842L35.0961 59.7842C33.9916 59.7842 33.0961 58.8887 33.0961 57.7842C33.0961 56.6796 33.9916 55.7842 35.0961 55.7842L60.8398 55.7842C61.9444 55.7842 62.8398 56.6796 62.8398 57.7842Z" fill="#494949"/>
<path d="M20.8927 65.5068L34.0163 65.5068C34.6135 65.5068 35.0977 65.008 35.0977 64.3927L35.0977 50.8714C35.0977 50.2561 34.6135 49.7573 34.0163 49.7573L20.8927 49.7573C20.2955 49.7573 19.8114 50.2561 19.8114 50.8714L19.8114 64.3927C19.8114 65.008 20.2955 65.5068 20.8927 65.5068Z" fill="#FBB04C"/>
<path d="M51.4006 27.9675L51.4006 38.6941L60.8362 44.0537L70.2793 38.6941L70.2793 27.9675L60.8362 22.6006L51.4006 27.9675Z" fill="#FBB04C"/>
<path d="M72 99.8383L50.5469 99.8383L60.7003 78.3853L72 99.8383Z" fill="#494949"/>
<path fill-rule="evenodd" clip-rule="evenodd" d="M91 113.003C91 114.107 90.1046 115.003 89 115.003L9 115.003C7.89543 115.003 7 114.108 7 113.003C7 111.898 7.89543 111.003 9 111.003L89 111.003C90.1046 111.003 91 111.898 91 113.003Z" fill="#494949"/>
<path fill-rule="evenodd" clip-rule="evenodd" d="M9 115.003C7.89543 115.003 7 114.107 7 113.003L6.99999 8.00293C6.99999 6.89836 7.89542 6.00293 8.99999 6.00293C10.1046 6.00293 11 6.89836 11 8.00293L11 113.003C11 114.107 10.1046 115.003 9 115.003Z" fill="#494949"/>
<path fill-rule="evenodd" clip-rule="evenodd" d="M91 8.00293C91 9.1075 90.1046 10.0029 89 10.0029L9 10.0029C7.89543 10.0029 7 9.10751 7 8.00294C7 6.89837 7.89543 6.00294 9 6.00294L89 6.00293C90.1046 6.00293 91 6.89836 91 8.00293Z" fill="#494949"/>
<path fill-rule="evenodd" clip-rule="evenodd" d="M89 50.0029C87.8954 50.0029 87 49.1075 87 48.0029L87 8.00293C87 6.89836 87.8954 6.00293 89 6.00293C90.1046 6.00293 91 6.89836 91 8.00293L91 48.0029C91 49.1075 90.1046 50.0029 89 50.0029Z" fill="#494949"/>
<path fill-rule="evenodd" clip-rule="evenodd" d="M89 115.003C87.8954 115.003 87 114.107 87 113.003L87 81.0029C87 79.8984 87.8954 79.0029 89 79.0029C90.1046 79.0029 91 79.8984 91 81.0029L91 113.003C91 114.107 90.1046 115.003 89 115.003Z" fill="#494949"/>
<path fill-rule="evenodd" clip-rule="evenodd" d="M75.438 79.0654C75.9806 79.6081 76.7858 79.7924 77.5105 79.5398L87.2794 76.1348C87.5639 76.0356 87.8223 75.8735 88.0354 75.6604L131.104 32.5917C131.885 31.8106 131.885 30.5443 131.104 29.7632L124.74 23.3993C123.959 22.6182 122.693 22.6182 121.912 23.3993L78.843 66.468C78.63 66.6811 78.4678 66.9395 78.3686 67.224L74.9636 76.993C74.7111 77.7176 74.8954 78.5228 75.438 79.0654ZM81.9951 68.9728L123.326 27.6419L126.862 31.1774L85.5306 72.5083L80.1034 74.4L81.9951 68.9728Z" fill="#494949"/>
<path fill-rule="evenodd" clip-rule="evenodd" d="M96 -8.74228e-08C97.1046 -1.35705e-07 98 0.89543 98 2L98 39C98 40.1046 97.1046 41 96 41C94.8954 41 94 40.1046 94 39L94 2C94 0.89543 94.8954 -3.91405e-08 96 -8.74228e-08Z" fill="#494949"/>
<path fill-rule="evenodd" clip-rule="evenodd" d="M2 70.0015C3.10457 70.0015 4 70.8969 4 72.0015V116.307C4 117.411 3.10457 118.307 2 118.307C0.89543 118.307 0 117.411 0 116.307V72.0015C0 70.8969 0.89543 70.0015 2 70.0015Z" fill="#494949"/>
<path fill-rule="evenodd" clip-rule="evenodd" d="M96.3047 120C96.3047 121.105 95.4093 122 94.3047 122L49.9993 122C48.8947 122 47.9993 121.105 47.9993 120C47.9993 118.895 48.8947 118 49.9993 118L94.3047 118C95.4093 118 96.3047 118.895 96.3047 120Z" fill="#494949"/>
<path fill-rule="evenodd" clip-rule="evenodd" d="M96 92.001C97.1046 92.001 98 92.8964 98 94.001L98 109.001C98 110.106 97.1046 111.001 96 111.001C94.8954 111.001 94 110.106 94 109.001L94 94.001C94 92.8964 94.8954 92.001 96 92.001Z" fill="#494949"/>
<path fill-rule="evenodd" clip-rule="evenodd" d="M16 15C17.1046 15 18 15.8954 18 17L18 21C18 22.1046 17.1046 23 16 23C14.8954 23 14 22.1046 14 21L14 17C14 15.8954 14.8954 15 16 15Z" fill="#494949"/>
<path fill-rule="evenodd" clip-rule="evenodd" d="M16 94C17.1046 94 18 94.8954 18 96L18 105C18 106.105 17.1046 107 16 107C14.8954 107 14 106.105 14 105L14 96C14 94.8954 14.8954 94 16 94Z" fill="#494949"/>
</svg>
