<svg width="146" height="136" viewBox="0 0 146 136" fill="none" xmlns="http://www.w3.org/2000/svg">
<path d="M96.6884 35.0531V11.9679L76.4263 0.433105L56.1484 11.9679V35.0531L76.4263 46.6036L96.6884 35.0531Z" fill="#FBB04C"/>
<path d="M86.9726 64.6216H64.7365C63.7246 64.6216 62.9043 65.4776 62.9043 66.5335V89.7364C62.9043 90.7923 63.7246 91.6482 64.7365 91.6482H86.9726C87.9845 91.6482 88.8048 90.7923 88.8048 89.7364V66.5335C88.8048 65.4776 87.9845 64.6216 86.9726 64.6216Z" fill="#494949"/>
<path d="M88.8174 135.579H62.9043L75.1686 109.666L88.8174 135.579Z" fill="#494949"/>
<path d="M129.18 131.373C130.284 131.373 131.18 130.477 131.18 129.373C131.18 128.268 130.284 127.373 129.18 127.373V131.373ZM10.6776 24.3563C9.89653 25.1373 9.89653 26.4037 10.6776 27.1847L23.4055 39.9126C24.1866 40.6937 25.4529 40.6937 26.2339 39.9126C27.015 39.1316 27.015 37.8653 26.2339 37.0842L14.9202 25.7705L26.2339 14.4568C27.015 13.6758 27.015 12.4094 26.2339 11.6284C25.4529 10.8473 24.1866 10.8473 23.4055 11.6284L10.6776 24.3563ZM129.18 127.373H38.7701V131.373H129.18V127.373ZM38.7701 79.5716H116.335V75.5716H38.7701V79.5716ZM116.335 23.7705H12.0918V27.7705H116.335V23.7705ZM38.7701 129.373C38.7701 127.373 38.7709 127.373 38.7717 127.373C38.7718 127.373 38.7724 127.373 38.7727 127.373C38.7731 127.373 38.7732 127.373 38.7729 127.373C38.7722 127.373 38.7699 127.373 38.7661 127.373C38.7585 127.373 38.7447 127.372 38.7249 127.372C38.6851 127.371 38.6214 127.37 38.5352 127.367C38.3627 127.362 38.1007 127.35 37.7621 127.327C37.0842 127.28 36.1033 127.185 34.9211 126.994C32.5469 126.609 29.4131 125.845 26.3043 124.336C23.202 122.83 20.1693 120.605 17.909 117.314C15.6593 114.038 14.0918 109.585 14.0918 103.472H10.0918C10.0918 110.31 11.8591 115.57 14.6116 119.578C17.3535 123.571 20.9903 126.203 24.5576 127.934C28.1184 129.663 31.6541 130.517 34.2821 130.942C35.601 131.156 36.7043 131.263 37.4854 131.317C37.8763 131.344 38.1875 131.358 38.4058 131.365C38.515 131.369 38.601 131.371 38.6622 131.372C38.6929 131.372 38.7173 131.372 38.7353 131.372C38.7443 131.373 38.7518 131.373 38.7576 131.373C38.7605 131.373 38.763 131.373 38.765 131.373C38.7661 131.373 38.7673 131.373 38.7679 131.373C38.769 131.373 38.7701 131.373 38.7701 129.373ZM14.0918 103.472C14.0918 97.3593 15.6593 92.9066 17.909 89.6305C20.1693 86.3389 23.202 84.1143 26.3043 82.6083C29.4131 81.0993 32.5469 80.3347 34.9211 79.9506C36.1033 79.7593 37.0842 79.6644 37.7621 79.6174C38.1007 79.5939 38.3627 79.5824 38.5352 79.5768C38.6214 79.574 38.6851 79.5727 38.7249 79.5721C38.7447 79.5718 38.7585 79.5717 38.7661 79.5716C38.7699 79.5716 38.7722 79.5716 38.7729 79.5716C38.7732 79.5716 38.7731 79.5716 38.7727 79.5716C38.7724 79.5716 38.7718 79.5716 38.7717 79.5716C38.7709 79.5716 38.7701 79.5716 38.7701 77.5716C38.7701 75.5716 38.769 75.5716 38.7679 75.5716C38.7673 75.5716 38.7661 75.5716 38.765 75.5716C38.763 75.5716 38.7605 75.5716 38.7576 75.5716C38.7518 75.5716 38.7443 75.5716 38.7353 75.5717C38.7173 75.5719 38.6929 75.5721 38.6622 75.5726C38.601 75.5735 38.515 75.5754 38.4058 75.5789C38.1875 75.586 37.8763 75.5998 37.4854 75.6269C36.7043 75.6811 35.601 75.7885 34.2821 76.0019C31.6541 76.4272 28.1184 77.2814 24.5576 79.0099C20.9903 80.7415 17.3535 83.3733 14.6116 87.3662C11.8591 91.3746 10.0918 96.6346 10.0918 103.472H14.0918ZM116.335 77.5716C116.335 79.5716 116.336 79.5716 116.337 79.5716C116.337 79.5716 116.339 79.5716 116.34 79.5715C116.342 79.5715 116.344 79.5715 116.347 79.5715C116.353 79.5715 116.36 79.5715 116.37 79.5714C116.388 79.5713 116.413 79.571 116.444 79.5705C116.507 79.5696 116.595 79.5678 116.708 79.5643C116.932 79.5572 117.253 79.5435 117.657 79.5165C118.463 79.4626 119.603 79.3556 120.966 79.1429C123.682 78.7192 127.336 77.8679 131.016 76.1454C134.7 74.4206 138.465 71.7962 141.307 67.8049C144.163 63.7944 146.001 58.5243 146.001 51.671H142.001C142.001 57.768 140.381 62.2106 138.049 65.4846C135.704 68.7779 132.552 71.0098 129.32 72.5226C126.083 74.0376 122.821 74.8051 120.349 75.1908C119.118 75.3828 118.097 75.4782 117.39 75.5254C117.037 75.549 116.764 75.5606 116.583 75.5662C116.493 75.569 116.426 75.5704 116.384 75.571C116.363 75.5713 116.348 75.5714 116.34 75.5715C116.336 75.5715 116.333 75.5716 116.332 75.5716C116.332 75.5716 116.332 75.5716 116.332 75.5716C116.332 75.5716 116.333 75.5716 116.333 75.5716C116.334 75.5716 116.335 75.5716 116.335 77.5716ZM146.001 51.671C146.001 44.8177 144.163 39.5476 141.307 35.5372C138.465 31.5459 134.7 28.9214 131.016 27.1967C127.336 25.4741 123.682 24.6229 120.966 24.1991C119.603 23.9865 118.463 23.8795 117.657 23.8256C117.253 23.7986 116.932 23.7848 116.708 23.7778C116.595 23.7743 116.507 23.7725 116.444 23.7715C116.413 23.7711 116.388 23.7708 116.37 23.7707C116.36 23.7706 116.353 23.7706 116.347 23.7705C116.344 23.7705 116.342 23.7705 116.34 23.7705C116.339 23.7705 116.337 23.7705 116.337 23.7705C116.336 23.7705 116.335 23.7705 116.335 25.7705C116.335 27.7705 116.334 27.7705 116.333 27.7705C116.333 27.7705 116.332 27.7705 116.332 27.7705C116.332 27.7705 116.332 27.7705 116.332 27.7705C116.333 27.7705 116.336 27.7705 116.34 27.7706C116.348 27.7706 116.363 27.7708 116.384 27.7711C116.426 27.7717 116.493 27.773 116.583 27.7759C116.764 27.7815 117.037 27.793 117.39 27.8166C118.097 27.8639 119.118 27.9593 120.349 28.1513C122.821 28.5369 126.083 29.3044 129.32 30.8195C132.552 32.3323 135.704 34.5642 138.049 37.8574C140.381 41.1315 142.001 45.5741 142.001 51.671H146.001Z" fill="#494949"/>
<path d="M4.38586 93.9002C4.82746 86.41 11.5909 77.0193 18.0378 74.7013" stroke="#494949" stroke-width="4" stroke-linecap="round"/>
<path d="M57.8998 86.5806H45.0547" stroke="#494949" stroke-width="4" stroke-linecap="round" stroke-linejoin="round"/>
<path d="M112.382 68H96.5723" stroke="#494949" stroke-width="4" stroke-linecap="round" stroke-linejoin="round"/>
<path d="M97.0664 120.927H133.626" stroke="#494949" stroke-width="4" stroke-linecap="round" stroke-linejoin="round"/>
<path d="M122.127 63.7468C121.022 63.7468 120.127 64.6423 120.127 65.7468C120.127 66.8514 121.022 67.7468 122.127 67.7468V63.7468ZM132.972 51.1074C132.972 58.3417 127.879 63.7468 122.127 63.7468V67.7468C130.563 67.7468 136.972 60.0434 136.972 51.1074H132.972Z" fill="#494949"/>
<path d="M35.0334 118.565C30.587 118.565 26.1392 116.312 24.6563 112.371" stroke="#494949" stroke-width="4" stroke-linecap="round"/>
<path d="M122.127 36.4683C129.221 36.4683 134.972 43.0226 134.972 51.1077" stroke="#494949" stroke-width="4" stroke-linecap="round"/>
</svg>
