<svg width="143" height="140" viewBox="0 0 143 140" fill="none" xmlns="http://www.w3.org/2000/svg">
<path fill-rule="evenodd" clip-rule="evenodd" d="M93.9513 98.071C102.983 92.3293 109 82.1372 109 70.5C109 52.4986 94.6213 38 77 38C59.3787 38 45 52.4986 45 70.5C45 81.6841 50.5567 91.533 59.0081 97.3807C61.9994 99.4504 64.3261 102.919 64.3261 107.067V109.702C64.3261 111.359 65.6692 112.702 67.3261 112.702H85.2215C86.8783 112.702 88.2215 111.359 88.2215 109.702V108.016C88.2215 103.682 90.7521 100.105 93.9513 98.071ZM96.0973 101.447C93.8144 102.898 92.2215 105.311 92.2215 108.016V109.702C92.2215 113.568 89.0874 116.702 85.2215 116.702H67.3261C63.4601 116.702 60.3261 113.568 60.3261 109.702V107.067C60.3261 104.477 58.8621 102.144 56.7321 100.67C47.2347 94.0986 41 83.0375 41 70.5C41 50.3416 57.1177 34 77 34C96.8823 34 113 50.3416 113 70.5C113 83.5457 106.25 94.9928 96.0973 101.447Z" fill="#494949"/>
<path fill-rule="evenodd" clip-rule="evenodd" d="M76 31C74.8954 31 74 30.1046 74 29L74 22.5C74 21.3954 74.8954 20.5 76 20.5C77.1046 20.5 78 21.3954 78 22.5L78 29C78 30.1046 77.1046 31 76 31Z" fill="#494949"/>
<path fill-rule="evenodd" clip-rule="evenodd" d="M130 69C130 70.1046 129.105 71 128 71H122C120.895 71 120 70.1046 120 69C120 67.8954 120.895 67 122 67H128C129.105 67 130 67.8954 130 69Z" fill="#494949"/>
<path fill-rule="evenodd" clip-rule="evenodd" d="M30 69C30 70.1046 29.1046 71 28 71H22C20.8954 71 20 70.1046 20 69C20 67.8954 20.8954 67 22 67H28C29.1046 67 30 67.8954 30 69Z" fill="#494949"/>
<path fill-rule="evenodd" clip-rule="evenodd" d="M113.215 32.337C113.944 33.1667 113.863 34.4305 113.033 35.1596L108.115 39.4812C107.286 40.2103 106.022 40.1288 105.293 39.2991C104.564 38.4694 104.645 37.2057 105.475 36.4765L110.392 32.155C111.222 31.4258 112.486 31.5073 113.215 32.337Z" fill="#494949"/>
<path fill-rule="evenodd" clip-rule="evenodd" d="M39.3868 97.2184C40.1159 98.0481 40.0344 99.3118 39.2047 100.041L34.2872 104.363C33.4575 105.092 32.1938 105.01 31.4647 104.18C30.7355 103.351 30.817 102.087 31.6467 101.358L36.5642 97.0363C37.3939 96.3072 38.6576 96.3887 39.3868 97.2184Z" fill="#494949"/>
<path fill-rule="evenodd" clip-rule="evenodd" d="M118.452 107.316C117.742 108.162 116.48 108.271 115.635 107.561L110.622 103.35C109.776 102.639 109.667 101.378 110.377 100.532C111.088 99.6862 112.349 99.5766 113.195 100.287L118.208 104.498C119.053 105.208 119.163 106.47 118.452 107.316Z" fill="#494949"/>
<path fill-rule="evenodd" clip-rule="evenodd" d="M43.2044 44.0971C42.4939 44.9428 41.2324 45.0525 40.3866 44.342L35.374 40.131C34.5283 39.4206 34.4186 38.159 35.1291 37.3132C35.8396 36.4675 37.1012 36.3579 37.9469 37.0683L42.9595 41.2793C43.8053 41.9897 43.9149 43.2513 43.2044 44.0971Z" fill="#494949"/>
<path fill-rule="evenodd" clip-rule="evenodd" d="M66 122C66 120.895 66.8954 120 68 120H85C86.1046 120 87 120.895 87 122C87 123.105 86.1046 124 85 124H68C66.8954 124 66 123.105 66 122Z" fill="#494949"/>
<path fill-rule="evenodd" clip-rule="evenodd" d="M70 128C70 126.895 70.8954 126 72 126H80C81.1046 126 82 126.895 82 128C82 129.105 81.1046 130 80 130H72C70.8954 130 70 129.105 70 128Z" fill="#494949"/>
<path d="M85 72.5C85 76.6421 81.6421 80 77.5 80C73.3579 80 70 76.6421 70 72.5C70 68.3579 73.3579 65 77.5 65C81.6421 65 85 68.3579 85 72.5Z" fill="#494949"/>
<path fill-rule="evenodd" clip-rule="evenodd" d="M140.679 71.2954C141.783 71.2954 142.679 72.1908 142.679 73.2954C142.679 74.549 142.644 75.7947 142.574 77.0316C142.513 78.1344 141.568 78.9784 140.466 78.9167C139.363 78.8549 138.519 77.9109 138.581 76.808C138.646 75.6456 138.679 74.4744 138.679 73.2954C138.679 72.1908 139.574 71.2954 140.679 71.2954ZM137.695 92.7454C138.736 93.1142 139.281 94.2572 138.912 95.2984C138.076 97.659 137.109 99.9584 136.02 102.188C135.536 103.181 134.338 103.592 133.345 103.107C132.353 102.623 131.941 101.425 132.426 100.433C133.449 98.3385 134.357 96.1792 135.142 93.9628C135.511 92.9216 136.654 92.3765 137.695 92.7454ZM125.434 114.783C126.253 115.524 126.316 116.789 125.575 117.608C123.903 119.454 122.129 121.207 120.261 122.857C119.434 123.588 118.17 123.51 117.438 122.682C116.707 121.854 116.785 120.59 117.613 119.859C119.37 118.307 121.038 116.659 122.609 114.924C123.35 114.105 124.615 114.042 125.434 114.783ZM105.674 130.462C106.149 131.459 105.726 132.653 104.729 133.128C102.492 134.194 100.185 135.14 97.8183 135.959C96.7743 136.319 95.6355 135.766 95.2747 134.722C94.9138 133.678 95.4676 132.539 96.5116 132.178C98.7366 131.409 100.905 130.519 103.008 129.517C104.005 129.042 105.199 129.465 105.674 130.462ZM81.432 137.428C81.4922 138.531 80.6469 139.474 79.544 139.534C78.308 139.602 77.0632 139.636 75.8105 139.636C74.706 139.636 73.8105 138.741 73.8105 137.636C73.8105 136.532 74.706 135.636 75.8105 135.636C76.9904 135.636 78.1624 135.604 79.3258 135.54C80.4288 135.48 81.3717 136.325 81.432 137.428Z" fill="#494949"/>
<path fill-rule="evenodd" clip-rule="evenodd" d="M29.4347 118.326C30.1966 117.526 31.4626 117.496 32.2623 118.257C43.5608 129.021 58.9036 135.637 75.8113 135.637C76.9158 135.637 77.8113 136.532 77.8113 137.637C77.8113 138.741 76.9158 139.637 75.8113 139.637C57.8402 139.637 41.519 132.6 29.5033 121.154C28.7035 120.392 28.6728 119.126 29.4347 118.326Z" fill="#494949"/>
<path fill-rule="evenodd" clip-rule="evenodd" d="M10.9434 71.2959C12.0479 71.2959 12.9434 72.1913 12.9434 73.2959C12.9434 74.7048 12.9905 76.1025 13.0831 77.4875C13.1569 78.5896 12.3233 79.5428 11.2211 79.6166C10.119 79.6903 9.16582 78.8567 9.09207 77.7546C8.99344 76.2807 8.94336 74.794 8.94336 73.2959C8.94336 72.1913 9.83879 71.2959 10.9434 71.2959ZM11.8445 84.2312C12.9266 84.0093 13.9837 84.7065 14.2056 85.7886C14.7718 88.5495 15.5221 91.2439 16.4431 93.8589C16.8101 94.9008 16.263 96.0428 15.2212 96.4098C14.1793 96.7767 13.0373 96.2296 12.6703 95.1878C11.6893 92.4026 10.8902 89.5327 10.2871 86.5922C10.0652 85.5102 10.7625 84.4531 11.8445 84.2312ZM17.0637 100.687C18.0462 100.182 19.2518 100.57 19.7565 101.552C21.0376 104.046 22.483 106.443 24.0789 108.73C24.711 109.635 24.4892 110.882 23.5835 111.514C22.6777 112.146 21.4309 111.925 20.7988 111.019C19.1008 108.586 17.5623 106.035 16.1985 103.38C15.6938 102.397 16.0812 101.192 17.0637 100.687ZM26.4984 115.146C27.3118 114.399 28.577 114.452 29.3243 115.266C30.27 116.295 31.25 117.293 32.2625 118.257C33.0622 119.019 33.0929 120.285 32.3311 121.085C31.5692 121.885 30.3032 121.916 29.5035 121.154C28.4267 120.128 27.3845 119.067 26.3787 117.972C25.6314 117.158 25.685 115.893 26.4984 115.146Z" fill="#494949"/>
<path fill-rule="evenodd" clip-rule="evenodd" d="M28.6372 29.0875C29.4599 29.8244 29.5294 31.0889 28.7925 31.9116C27.255 33.6279 25.8118 35.4289 24.4708 37.3064C23.8288 38.2053 22.5797 38.4135 21.6809 37.7715C20.782 37.1295 20.5738 35.8804 21.2158 34.9816C22.6426 32.9839 24.1778 31.0682 25.813 29.2427C26.55 28.42 27.8144 28.3505 28.6372 29.0875ZM11.557 64.1848C12.6549 64.3067 13.446 65.2954 13.3241 66.3933C13.0726 68.6589 12.9434 70.9617 12.9434 73.2952C12.9434 74.3997 12.0479 75.2952 10.9434 75.2952C9.83879 75.2952 8.94336 74.3997 8.94336 73.2952C8.94336 70.8139 9.08075 68.3637 9.34854 65.9518C9.47044 64.854 10.4592 64.0629 11.557 64.1848Z" fill="#494949"/>
<path fill-rule="evenodd" clip-rule="evenodd" d="M75.8114 10.9551C73.5746 10.9551 71.3656 11.0708 69.1903 11.2965C68.0916 11.4105 67.1085 10.6123 66.9945 9.51361C66.8806 8.41494 67.6788 7.43188 68.7775 7.31789C71.0897 7.078 73.4364 6.95508 75.8114 6.95508C76.916 6.95508 77.8114 7.85051 77.8114 8.95508C77.8114 10.0596 76.916 10.9551 75.8114 10.9551ZM57.5288 11.5138C57.8697 12.5644 57.2943 13.6925 56.2437 14.0334C51.9988 15.4107 47.9527 17.2242 44.1591 19.4206C43.2032 19.974 41.9796 19.6478 41.4262 18.6919C40.8727 17.736 41.199 16.5124 42.1549 15.9589C46.1896 13.6229 50.4934 11.6938 55.0092 10.2287C56.0598 9.88776 57.1879 10.4631 57.5288 11.5138ZM33.6089 24.3918C34.3496 25.2111 34.286 26.4758 33.4666 27.2166C31.8268 28.6993 30.2663 30.2668 28.7925 31.9122C28.0555 32.735 26.7911 32.8045 25.9683 32.0675C25.1456 31.3305 25.076 30.0661 25.813 29.2433C27.3806 27.4933 29.0401 25.8263 30.784 24.2495C31.6033 23.5088 32.8681 23.5724 33.6089 24.3918Z" fill="#494949"/>
<path fill-rule="evenodd" clip-rule="evenodd" d="M73.8105 8.95508C73.8105 7.85051 74.706 6.95508 75.8105 6.95508C80.6591 6.95508 85.3893 7.46737 89.9484 8.4411C91.0286 8.67181 91.7173 9.73452 91.4865 10.8147C91.2558 11.8949 90.1931 12.5836 89.1129 12.3529C84.8268 11.4375 80.3766 10.9551 75.8105 10.9551C74.706 10.9551 73.8105 10.0596 73.8105 8.95508ZM118.143 24.5023C118.886 23.685 120.151 23.6246 120.968 24.3675C124.483 27.5623 127.653 31.1253 130.416 34.9953C131.057 35.8943 130.849 37.1434 129.95 37.7851C129.051 38.4269 127.802 38.2184 127.16 37.3194C124.563 33.6819 121.583 30.3319 118.278 27.3276C117.46 26.5846 117.4 25.3197 118.143 24.5023Z" fill="#494949"/>
<path fill-rule="evenodd" clip-rule="evenodd" d="M127.625 34.5291C128.524 33.8873 129.773 34.0959 130.415 34.9949C138.138 45.8133 142.678 59.0307 142.678 73.2953C142.678 74.3998 141.783 75.2953 140.678 75.2953C139.574 75.2953 138.678 74.3998 138.678 73.2953C138.678 59.8934 134.416 47.4834 127.159 37.3189C126.518 36.4199 126.726 35.1709 127.625 34.5291Z" fill="#494949"/>
<path fill-rule="evenodd" clip-rule="evenodd" d="M77.5972 56.1564C75.8637 59.823 71.3602 61.2502 67.8312 59.2514C68.5839 63.2367 65.7794 67.0384 61.7495 67.4956C64.7009 70.2773 64.6666 75.0014 61.6751 77.74C65.698 78.2557 68.447 82.0977 67.6365 86.0716C71.1941 84.1243 75.6764 85.6167 77.3565 89.3081C79.0901 85.6415 83.5936 84.2143 87.1226 86.2131C86.3699 82.2278 89.1744 78.4261 93.2042 77.9689C90.2528 75.1872 90.2871 70.4631 93.2786 67.7245C89.2558 67.2088 86.5068 63.3668 87.3173 59.3928C83.7596 61.3402 79.2773 59.8478 77.5972 56.1564ZM80.4103 52.3973C79.4231 49.8747 75.8627 49.8489 74.839 52.3568L74.0503 54.2892C73.342 56.0245 71.2337 56.6926 69.6552 55.682L67.8975 54.5567C65.6161 53.0961 62.7205 55.168 63.3664 57.7987L63.8642 59.8256C64.3111 61.6458 62.9982 63.4256 61.1272 63.5358L59.0436 63.6586C56.3395 63.8179 55.2147 67.1961 57.2836 68.9446L58.8776 70.2919C60.3091 71.5017 60.293 73.7134 58.8441 74.9023L57.2307 76.2263C55.1366 77.9446 56.2123 81.3388 58.9138 81.5373L60.9954 81.6903C62.8646 81.8277 64.1515 83.6264 63.6782 85.4399L63.1511 87.4594C62.467 90.0804 65.3323 92.1941 67.6346 90.7668L69.4085 89.6671C71.0015 88.6795 73.0999 89.3782 73.7829 91.1236L74.5435 93.0672C75.5306 95.5898 79.0911 95.6156 80.1147 93.1076L80.9034 91.1753C81.6117 89.44 83.7201 88.7719 85.2985 89.7824L87.0563 90.9078C89.3376 92.3683 92.2333 90.2965 91.5873 87.6658L91.0896 85.6389C90.6426 83.8187 91.9556 82.0389 93.8266 81.9287L95.9101 81.8059C98.6142 81.6466 99.7391 78.2684 97.6702 76.5198L96.0761 75.1726C94.6446 73.9627 94.6607 71.7511 96.1096 70.5622L97.723 69.2382C99.8171 67.5199 98.7414 64.1257 96.0399 63.9271L93.9584 63.7742C92.0892 63.6368 90.8022 61.8381 91.2755 60.0246L91.8026 58.0051C92.4867 55.3841 89.6215 53.2704 87.3192 54.6977L85.5453 55.7974C83.9523 56.785 81.8539 56.0863 81.1709 54.3409L80.4103 52.3973Z" fill="#494949"/>
<path d="M22.3022 39H1.69777C0.760111 39 0 39.7602 0 40.6978V61.3022C0 62.2399 0.760111 63 1.69777 63H22.3022C23.2399 63 24 62.2399 24 61.3022V40.6978C24 39.7602 23.2399 39 22.3022 39Z" fill="#FBB04C"/>
<path d="M140 131.995V115.995L126.005 108L112 115.995V131.995L126.005 140L140 131.995Z" fill="#494949"/>
<path d="M115 26H89L101.305 0L115 26Z" fill="#FBB04C"/>
</svg>
