
<svg width="120" height="117" viewBox="0 0 120 117" fill="none" xmlns="http://www.w3.org/2000/svg">
<path d="M90.7351 39.6655H75.4418C74.7458 39.6655 74.1816 40.2468 74.1816 40.9639V56.7206C74.1816 57.4377 74.7458 58.019 75.4418 58.019H90.7351C91.4311 58.019 91.9953 57.4377 91.9953 56.7206V40.9639C91.9953 40.2468 91.4311 39.6655 90.7351 39.6655Z" fill="#FBB04C"/>
<path d="M55.7569 73.7664V55.1376L39.8739 45.8296L23.9785 55.1376V73.7664L39.8739 83.087L55.7569 73.7664Z" fill="#494949"/>
<path d="M63.8579 36.7119H42.2656L52.485 15.1196L63.8579 36.7119Z" fill="#494949"/>
<path fill-rule="evenodd" clip-rule="evenodd" d="M50.5642 92.3302C72.6825 92.3302 90.6129 74.3998 90.6129 52.2815C90.6129 30.1633 72.6825 12.2329 50.5642 12.2329C28.446 12.2329 10.5156 30.1633 10.5156 52.2815C10.5156 74.3998 28.446 92.3302 50.5642 92.3302ZM50.5642 96.3302C74.8916 96.3302 94.6129 76.6089 94.6129 52.2815C94.6129 27.9541 74.8916 8.23291 50.5642 8.23291C26.2369 8.23291 6.51562 27.9541 6.51562 52.2815C6.51562 76.6089 26.2369 96.3302 50.5642 96.3302Z" fill="#494949"/>
<path fill-rule="evenodd" clip-rule="evenodd" d="M76.7706 75.3696C77.5565 76.1458 77.5643 77.4121 76.7881 78.1979C70.455 84.6097 61.653 88.5868 51.9258 88.5868C50.8212 88.5868 49.9258 87.6913 49.9258 86.5868C49.9258 85.4822 50.8212 84.5868 51.9258 84.5868C60.5404 84.5868 68.3298 81.0692 73.9423 75.387C74.7185 74.6012 75.9848 74.5934 76.7706 75.3696Z" fill="#494949"/>
<path fill-rule="evenodd" clip-rule="evenodd" d="M2.06445 54.314C3.16902 54.314 4.06445 55.2094 4.06445 56.314C4.06445 67.7492 8.9678 78.0203 16.7654 85.1071C17.5829 85.85 17.6433 87.1149 16.9004 87.9323C16.1574 88.7498 14.8926 88.8102 14.0751 88.0673C5.47321 80.2494 0.0644531 68.916 0.0644531 56.314C0.0644531 55.2094 0.959884 54.314 2.06445 54.314Z" fill="#494949"/>
<path fill-rule="evenodd" clip-rule="evenodd" d="M46.8105 2C46.8105 0.89543 47.706 0 48.8105 0C78.6824 0 102.898 24.2159 102.898 54.0878C102.898 55.1923 102.003 56.0878 100.898 56.0878C99.7937 56.0878 98.8983 55.1923 98.8983 54.0878C98.8983 26.4251 76.4733 4 48.8105 4C47.706 4 46.8105 3.10457 46.8105 2Z" fill="#494949"/>
<path fill-rule="evenodd" clip-rule="evenodd" d="M79.1151 83.1535C79.8961 82.3724 81.1625 82.3724 81.9435 83.1535L110.695 111.905C111.476 112.686 111.476 113.952 110.695 114.733C109.914 115.514 108.647 115.514 107.866 114.733L79.1151 85.9819C78.334 85.2008 78.334 83.9345 79.1151 83.1535Z" fill="black"/>
<path fill-rule="evenodd" clip-rule="evenodd" d="M100.484 95.6188C101.265 94.8378 102.532 94.8378 103.313 95.6188L118.449 110.755C119.23 111.536 119.23 112.803 118.449 113.584C117.668 114.365 116.402 114.365 115.621 113.584L100.484 98.4472C99.7032 97.6662 99.7032 96.3999 100.484 95.6188Z" fill="black"/>
<path fill-rule="evenodd" clip-rule="evenodd" d="M79.8944 93.1862C80.6754 92.4051 81.9418 92.4051 82.7228 93.1862L88.0651 98.5285C88.8462 99.3096 88.8462 100.576 88.0651 101.357C87.2841 102.138 86.0178 102.138 85.2367 101.357L79.8944 96.0146C79.1133 95.2336 79.1133 93.9672 79.8944 93.1862Z" fill="black"/>
</svg>
