<svg width="1982" height="711" viewBox="0 0 1982 711" fill="none" xmlns="http://www.w3.org/2000/svg">
<path d="M267.19 307.28L272.1 307.76" stroke="#3DC6F1" stroke-width="2.47" stroke-miterlimit="10" stroke-linecap="round"/>
<path d="M272.101 307.76L276.181 308.15" stroke="#3DC6F1" stroke-width="2.47" stroke-miterlimit="10" stroke-linecap="round"/>
<path d="M282.24 308.73L378.57 317.96" stroke="#3DC6F1" stroke-width="2.47" stroke-miterlimit="10" stroke-linecap="round"/>
<path d="M383.641 318.45L388.551 318.92" stroke="#3DC6F1" stroke-width="2.47" stroke-miterlimit="10" stroke-linecap="round"/>
<path d="M475.21 260.77L501.45 333.43" stroke="#3DC6F1" stroke-width="2.47" stroke-miterlimit="10" stroke-linecap="round"/>
<path d="M358.47 318.05L363.38 318.52" stroke="#3DC6F1" stroke-width="2.47" stroke-miterlimit="10" stroke-linecap="round"/>
<path d="M363.38 318.52L367.45 318.92" stroke="#3DC6F1" stroke-width="2.47" stroke-miterlimit="10" stroke-linecap="round"/>
<path d="M373.52 319.5L469.85 328.73" stroke="#3DC6F1" stroke-width="2.47" stroke-miterlimit="10" stroke-linecap="round"/>
<path d="M474.92 329.22L479.83 329.69" stroke="#3DC6F1" stroke-width="2.47" stroke-miterlimit="10" stroke-linecap="round"/>
<path d="M384.45 316.67L386.81 321" stroke="#3DC6F1" stroke-width="2.47" stroke-miterlimit="10" stroke-linecap="round"/>
<path d="M386.811 321L388.761 324.59" stroke="#3DC6F1" stroke-width="2.47" stroke-miterlimit="10" stroke-linecap="round"/>
<path d="M391.681 329.94L437.961 414.93" stroke="#3DC6F1" stroke-width="2.47" stroke-miterlimit="10" stroke-linecap="round"/>
<path d="M440.4 419.4L442.75 423.73" stroke="#3DC6F1" stroke-width="2.47" stroke-miterlimit="10" stroke-linecap="round"/>
<path d="M296.79 422.84L450.2 431.42L502.56 340.65" stroke="#3DC6F1" stroke-width="2.47" stroke-miterlimit="10" stroke-linecap="round"/>
<path d="M282.45 299.75L286.63 296.07" stroke="#3DC6F1" stroke-width="2.47" stroke-miterlimit="10" stroke-linecap="round"/>
<path d="M286.63 296.07L289.88 293.22" stroke="#3DC6F1" stroke-width="2.47" stroke-miterlimit="10" stroke-linecap="round"/>
<path d="M294.63 289.05L450.7 151.98" stroke="#3DC6F1" stroke-width="2.47" stroke-miterlimit="10" stroke-linecap="round"/>
<path d="M454.7 148.47L458.89 144.79" stroke="#3DC6F1" stroke-width="2.47" stroke-miterlimit="10" stroke-linecap="round"/>
<path d="M245.66 313.54L247.79 318.68" stroke="#3DC6F1" stroke-width="2.47" stroke-miterlimit="10" stroke-linecap="round"/>
<path d="M247.79 318.68L249.45 322.68" stroke="#3DC6F1" stroke-width="2.47" stroke-miterlimit="10" stroke-linecap="round"/>
<path d="M251.87 328.53L290.59 422.07" stroke="#3DC6F1" stroke-width="2.47" stroke-miterlimit="10" stroke-linecap="round"/>
<path d="M292.63 426.99L294.76 432.14" stroke="#3DC6F1" stroke-width="2.47" stroke-miterlimit="10" stroke-linecap="round"/>
<path d="M292.51 424.75L296.07 420.47" stroke="#3DC6F1" stroke-width="2.47" stroke-miterlimit="10" stroke-linecap="round"/>
<path d="M296.069 420.47L298.969 416.98" stroke="#3DC6F1" stroke-width="2.47" stroke-miterlimit="10" stroke-linecap="round"/>
<path d="M303.16 411.95L384.63 314.01" stroke="#3DC6F1" stroke-width="2.47" stroke-miterlimit="10" stroke-linecap="round"/>
<path d="M388.17 309.75L391.73 305.47" stroke="#3DC6F1" stroke-width="2.47" stroke-miterlimit="10" stroke-linecap="round"/>
<path d="M382.5 321.44L384.46 316.91" stroke="#3DC6F1" stroke-width="2.47" stroke-miterlimit="10" stroke-linecap="round"/>
<path d="M384.46 316.91L385.97 313.42" stroke="#3DC6F1" stroke-width="2.47" stroke-miterlimit="10" stroke-linecap="round"/>
<path d="M388.27 308.09L455.02 153.73" stroke="#3DC6F1" stroke-width="2.47" stroke-miterlimit="10" stroke-linecap="round"/>
<path d="M456.93 149.32L458.89 144.79" stroke="#3DC6F1" stroke-width="2.47" stroke-miterlimit="10" stroke-linecap="round"/>
<path d="M390.08 483V478.43C388.34 480.17 388.77 481.7 390.08 483Z" fill="white"/>
<path d="M367.43 376.26C369.17 376.91 364.82 372.99 364.82 372.99C362.64 374.73 360.9 370.81 360.9 370.81H354.58V365.58L353.93 360.79L348.48 358.18L344.56 361.88L343.91 367.11V370.38L340.21 371.03L339.56 381.05L336.73 382.14L337.17 385.84L329.33 388.02L328.68 392.81L325.85 394.55L324.33 398.91L322.59 409.58C322.59 409.58 325.86 415.9 327.6 412.85C329.34 410.02 332.39 409.58 332.39 409.58L333.48 406.97L343.28 407.41C343.93 403.27 348.73 404.8 348.73 406.76C348.73 408.5 352.43 407.2 352.43 407.2L355.04 403.06H358.96L359.4 398.7L361.14 397.61V391.08C367.02 389.34 366.15 383.67 366.15 383.67L367.67 381.93L367.02 379.32C364.19 378.23 365.5 375.62 367.46 376.27L367.43 376.26Z" fill="white"/>
<path d="M338.019 355.79L335.189 356.44L328.649 362.76L328.219 365.59L326.479 368.2L324.299 373.65L316.669 374.09L315.149 380.62L316.239 386.28L322.769 388.9L323.429 385.2L325.599 384.11L326.039 380.4L327.569 377.79L329.739 375.17L330.399 372.34L334.099 370.17L338.459 369.29L340.199 367.12L340.849 362.76L341.289 359.49L342.809 357.1L347.169 355.35V348.38H344.989L344.559 345.77L340.629 345.33L339.759 347.29H338.019L337.589 350.13H339.759L340.199 352.52L338.669 353.83L338.019 355.79Z" fill="white"/>
<path d="M360.46 415.25L351.96 414.81L351.31 412.63L348.04 413.07L348.48 418.3L350.66 420.04L354.58 421.13C354.58 421.13 360.03 419.61 360.46 415.25Z" fill="white"/>
<path d="M588.3 278.24C585.25 278.24 587.43 274.54 585.69 273.45C583.73 272.36 584.82 267.35 584.17 265.83C583.3 264.52 583.3 262.56 581.56 261.47C579.82 260.38 582 265.61 580.91 266.26C579.82 266.91 579.17 268.44 578.08 269.53C576.99 270.62 580.26 272.14 580.26 273.23C580.26 274.32 580.91 279.76 580.91 279.76C580.91 279.76 583.31 280.85 583.74 282.37C584.18 283.89 583.74 286.73 584.83 287.16C585.92 287.6 588.1 288.9 587.44 290.43C586.78 291.96 586.79 294.79 586.79 294.79L588.31 298.06L591.14 299.8C591.14 299.8 592.23 291.09 590.49 290.65C588.75 290.43 589.4 285.2 589.4 285.2C589.4 285.2 591.14 278.23 588.31 278.23L588.3 278.24Z" fill="white"/>
<path d="M302.08 207.23L302.52 211.37H307.97C310.15 211.37 306.23 208.76 306.23 208.76C306.23 208.76 301.87 209.2 302.09 207.24L302.08 207.23Z" fill="white"/>
<path d="M244.574 137.1L243.047 138.627L245.225 140.805L246.752 139.278L244.574 137.1Z" fill="white"/>
<path d="M356.319 451.63C358.059 451.41 359.149 450.54 360.459 450.32C361.769 449.88 362.419 447.71 362.859 445.53C363.509 443.35 362.419 442.26 362.419 442.26C362.419 442.26 361.109 444.44 358.939 442.26C356.759 440.08 355.019 447.05 354.149 448.79C354.149 448.79 355.019 451.84 356.329 451.62L356.319 451.63Z" fill="white"/>
<path d="M401.41 487.35L403.799 483.22L401.84 482.56L399.229 484.3L400.319 485.39L401.41 487.35Z" fill="white"/>
<path d="M372 436.38C371.56 433.98 366.12 434.2 365.68 437.03L365.46 439.21C365.46 439.21 364.15 442.48 365.68 443.13C367.42 443.78 366.77 444 367.64 444.87L366.77 446.83C365.46 445.09 364.59 448.14 365.46 449.01C366.11 449.66 363.5 449.23 363.5 450.32C363.5 451.41 362.63 451.84 363.5 452.5C364.37 453.15 363.28 453.37 362.19 454.24C361.1 455.11 366.76 455.33 366.76 455.33C366.76 455.33 365.67 453.15 366.98 453.15C368.5 453.15 368.94 453.15 370.03 453.8C371.12 454.24 371.77 454.89 372.64 454.02C373.51 453.15 373.51 451.84 373.51 451.19C373.51 450.54 373.51 449.23 374.6 449.23C375.69 449.23 375.25 447.05 374.16 447.27C373.07 447.71 372.42 445.53 371.98 445.96L371.11 444.65C371.98 443.78 370.67 442.91 371.98 442.91C373.29 442.91 373.5 441.17 373.5 441.17L371.98 440.52C371.98 440.52 372.2 438.78 371.98 436.38H372Z" fill="white"/>
<path d="M527.96 190.9C529.48 191.99 515.54 172.6 512.71 174.35C509.88 176.09 503.34 172.61 503.56 169.12C504 165.85 490.49 154.74 490.49 154.74C490.49 154.74 486.13 151.91 485.48 154.09C484.83 156.27 483.3 157.79 485.48 158.88C487.66 159.97 487.22 157.14 489.84 159.53C492.45 162.14 497.03 165.41 495.29 167.59C493.55 169.77 491.37 170.64 491.37 170.64L493.98 173.69H497.9L498.55 180.01C498.55 180.01 502.91 182.19 504 184.8C505.09 187.41 505.09 188.94 504 190.25C502.91 191.77 500.73 194.39 501.17 196.78C501.61 199.39 504.44 200.48 504.44 200.48L507.27 200.92L509.45 202.01V206.8C512.28 206.15 517.07 210.07 516.64 212.68C516.2 215.29 517.29 213.77 521 216.38C524.7 218.99 523.61 219.43 526.01 221.17C528.41 222.69 530.58 221.61 531.67 218.34L534.28 210.28C530.58 209.63 531.45 205.49 531.45 205.49C531.01 202.22 526 198.52 524.26 199.61C522.52 200.7 523.17 191.99 523.17 191.99C523.17 191.99 526.44 189.81 527.96 190.9Z" fill="white"/>
<path d="M533.63 98.1001C533.85 100.06 535.37 101.8 538.42 102.46L543.87 104.2C543.87 104.2 550.62 112.26 550.4 108.34C549.75 97.4501 544.52 97.0101 542.78 94.8301C540.82 92.6501 532.98 95.2701 533.63 98.1001Z" fill="white"/>
<path d="M443.229 134.92C443.229 136.01 444.75 136.01 445.41 138.19C446.07 140.37 445.849 144.07 449.109 144.72C452.379 145.37 453.03 146.24 453.47 147.77C453.91 149.3 457.829 149.51 457.829 149.51L460.66 151.03L469.159 158.44V155.61C469.159 155.61 468.719 152.78 466.979 152.78C465.239 152.78 461.97 150.6 462.62 149.08C463.27 147.56 456.52 146.03 456.52 146.03C456.52 146.03 450.419 140.15 452.599 140.8C454.779 141.45 453.69 138.19 453.69 138.19C453.69 138.19 449.33 138.84 448.24 138.63C447.15 138.19 447.59 134.93 447.59 134.93C447.59 134.93 443.229 133.84 443.229 134.93V134.92Z" fill="white"/>
<path d="M543.43 211.15L542.99 207.89L540.81 208.1L541.25 211.37L543.43 211.15Z" fill="white"/>
<path d="M535.37 220.08L530.58 226.4C530.58 231.63 533.19 229.23 535.37 229.23C537.55 229.23 534.72 237.73 540.38 236.85C546.26 236.2 540.82 239.46 545.17 239.68C549.53 240.12 548.44 236.41 549.96 233.8C551.48 231.19 550.61 229.66 548.22 229.01C546.48 228.577 545.39 227.343 544.95 225.31C544.3 222.48 541.25 221.61 541.25 221.61L540.16 217.25L535.37 220.08Z" fill="white"/>
<path d="M402.93 386.94C404.67 388.03 407.5 385.63 405.76 384.33C400.31 380.63 400.75 375.83 399.23 372.57C398.58 371.26 397.05 370.17 395.96 373.01V377.8C395.96 377.8 401.19 385.86 402.93 386.95V386.94Z" fill="white"/>
<path d="M402.28 56.0601L400.76 50.8301L395.97 49.3101L391.18 51.0501L386.17 54.3201L380.72 54.9701L377.89 58.2401L389.43 59.3301L391.61 63.0301L399.89 63.6801L405.34 69.1301C410.35 71.3101 411.44 69.1301 408.61 66.5201L403.82 61.73V57.59L402.3 56.0701L402.28 56.0601Z" fill="white"/>
<path d="M444.32 469.49L441.27 471.24L442.58 473.2L445.41 471.24L444.32 469.49Z" fill="white"/>
<path d="M380.059 391.73C380.929 395 380.709 386.5 382.239 386.94C383.759 387.38 382.679 381.71 382.679 381.71L376.149 386.5C379.199 386.94 379.639 390.2 380.069 391.73H380.059Z" fill="white"/>
<path d="M361.76 270.84H358.93V273.02H361.76V270.84Z" fill="white"/>
<path d="M311.23 209.19L312.54 207.45L310.36 205.71L309.05 207.45L311.23 209.19Z" fill="white"/>
<path d="M221.17 395.21C220.97 395.12 220.83 395.1 220.62 394.99C221.08 395.22 221.21 395.27 221.17 395.21Z" fill="white"/>
<path d="M308.83 367.77L309.92 371.91H312.75C313.84 366.03 321.46 366.03 323.64 369.73L325.82 364.5C320.81 361.89 325.82 357.97 327.13 359.71C328.65 361.45 331.92 354.92 331.92 354.92C331.92 354.92 334.53 358.19 331.92 353.83C329.31 349.47 333.66 347.3 333.66 347.3C333.01 342.94 338.45 343.6 338.45 343.6L338.89 337.72L333.88 337.28C332.79 342.51 328.43 337.93 330.61 336.84C332.79 335.75 334.97 333.57 334.97 333.57V329.87L337.15 329.22L337.59 325.52H343.04L347.83 323.34L348.92 321.6L353.93 321.16L361.12 314.63L360.47 311.8C356.11 311.8 360.47 308.53 360.47 308.53L360.91 302.43H356.99L356.34 294.37L358.52 292.85V288.71H345.89L345.45 284.57L347.19 283.48L344.36 282.39L342.18 285.22L341.53 288.49L337.83 289.14V290.88H335.22V295.67L324.98 304.17L304.72 303.52C303.2 306.79 299.71 303.08 299.71 303.08C299.06 300.9 293.83 303.08 293.83 303.08C293.83 307.22 286.86 301.34 286.86 301.34L274.23 292.19C267.04 285.66 256.15 293.93 255.72 295.89C256.16 301.12 247.44 296.98 247.44 296.98C247.44 296.98 240.25 294.8 239.16 297.63C238.07 300.46 233.28 299.81 233.28 299.81L232.63 301.33L228.93 301.98L228.28 304.16L223.92 304.81L234.81 304.37C237.64 303.93 233.72 310.69 231.98 310.25L226.97 310.69L225.23 312.43H220.44L218.26 315.48L211.29 315.04C211.29 315.04 207.37 318.31 207.59 319.4C208.03 320.49 206.94 323.76 205.85 323.76C204.76 323.76 202.58 327.03 203.24 328.12C203.89 329.21 201.06 332.91 201.06 332.91L200.41 336.61L198.23 337.26V347.28L193.87 350.33V354.69L187.34 361.66L187.99 367.54L182.54 373.42L183.19 379.3L179.92 380.39L179.27 383L177.75 390.62L181.45 391.06C183.19 390.41 182.97 395.85 181.45 396.51C179.93 397.16 176 398.69 178.18 400.21C180.36 401.73 172.3 401.3 172.3 399.12C172.3 396.94 167.94 394.98 166.85 395.85C165.76 396.5 164.02 392.58 164.02 392.58C160.1 388.44 147.68 393.02 147.68 393.02L145.94 398.9C142.02 399.55 139.41 406.31 139.41 406.31C136.14 407.4 133.53 411.54 134.62 412.63C135.71 413.72 132.88 414.15 132.88 414.15V422.21L131.14 424.82L131.58 433.53C133.76 433.53 133.32 437.67 133.32 437.67C129.62 438.11 130.49 442.9 130.49 442.9L122.87 445.51L121.35 447.69L111.98 447.25L109.37 449.86L106.76 447.25H88.6797L88.0297 445.51L84.3297 444.86L83.8897 440.72L78.4397 441.16L77.3497 443.34L71.4697 443.78C71.9097 447.48 65.5897 452.93 64.9397 451.4C64.2897 449.88 60.1497 445.95 62.1097 445.08C63.8497 444.43 68.6397 443.56 68.6397 443.56V440.95L55.1297 440.51L53.6097 442.69L48.1597 443.13V449.01L45.5497 449.66C43.8097 450.75 45.9897 454.89 45.9897 454.89C48.5997 457.5 45.5497 461.42 45.5497 461.42C45.0297 461.94 44.8697 462.57 44.9097 463.23C45.1797 464 45.4197 464.78 45.6897 465.54C46.3897 466.77 47.2897 467.73 47.2897 467.73C48.8697 468.1 48.1297 468.93 47.1797 469.6C50.4597 478.38 54.0997 486.98 58.0897 495.39H60.3597L59.9197 486.24C54.9097 480.36 64.2797 478.83 64.7097 481.01C65.1497 483.19 69.0697 484.28 69.0697 484.28C69.7197 489.73 76.0397 492.99 77.7797 487.55C79.5197 482.1 81.0497 485.37 82.1397 487.99C83.2297 490.6 90.1997 496.92 90.1997 496.92H95.6497L96.2997 502.15C102.4 501.71 104.36 502.59 106.76 510.86C109.37 519.36 116.13 521.53 116.13 521.53L121.14 521.09C121.14 516.73 126.15 521.74 126.15 524.14C126.15 526.32 135.95 534.81 135.95 534.81L145.75 536.99L154.9 544.4L161.87 543.75H164.7C166.44 537.43 175.16 544.19 176.03 546.36C176.68 548.54 182.56 552.24 183.22 550.5C183.88 548.76 188.01 549.85 188.67 555.29C189.32 560.74 191.94 559.65 191.94 559.65L212.63 559.21L219.82 552.89L238.33 552.45C247.7 552.01 242.03 539.16 240.07 539.16C236.8 536.55 241.16 525.87 241.16 525.87L214.8 501.26C208.7 501.26 214.15 492.33 214.15 492.33C218.94 489.28 213.06 484.71 213.06 484.71C213.71 480.35 210.45 475.13 210.45 475.13C203.92 470.77 205.66 462.28 205.66 462.28V456.4C200.21 451.17 207.84 450.52 207.84 450.52C210.45 446.16 206.1 442.9 206.1 442.9L205.66 438.11L199.78 437.46L199.13 420.25L186.06 401.52C183.45 400.87 185.41 396.29 185.41 396.29C188.68 394.55 184.76 389.97 184.76 389.97L184.32 381.91L191.94 381.26L193.68 378.43H197.38L196.94 368.85C198.68 364.06 203.04 366.67 203.04 366.67L208.05 367.11L210.88 361.66L211.53 357.3L207.61 356.86C203.25 354.25 205.43 344.66 205.43 344.66C212.4 334.42 220.24 340.3 220.24 340.3L225.25 339.86C232.87 345.09 225.9 354.45 225.9 354.45C224.38 356.63 225.25 363.6 225.25 363.6L226.99 375.36L222.2 379.5C218.28 381.68 218.28 386.91 222.64 388C225.47 388.44 224.38 395.41 220.03 390.61C214.48 390.61 221.01 394.84 221.24 395.18C227.06 397.76 225.7 392.13 225.7 392.13L234.41 385.16C237.68 382.55 243.56 390.61 243.56 391.69C243.56 392.77 257.94 392.13 257.94 392.13C261.86 394.74 263.39 401.28 263.39 401.28C267.31 396.05 275.81 400.84 269.49 403.89C275.37 407.59 275.37 410.86 275.37 410.86C280.16 409.34 280.16 413.04 280.16 414.13C280.16 415.22 281.68 408.68 281.68 408.68C276.23 404.54 288.87 403.23 285.38 410.42L283.2 413.69L286.9 416.52L287.34 425.02C295.4 424.37 293.22 414.35 293.22 414.35L296.92 413.7C296.92 410.43 299.53 412.18 299.53 412.18C296.92 399.76 305.41 397.59 305.41 397.59C310.2 396.5 310.42 386.48 310.42 386.48C307.15 384.96 308.9 379.95 312.6 384.3C316.3 388.66 310.42 375.37 310.42 375.37L307.59 372.76L303.67 372.32L303.23 368.18H296.7L295.61 373.41L293.21 374.5L292.56 372.98L291.47 377.12H284.94L284.5 372.76L288.42 371.67L289.94 369.49L291.03 363.61H295.82L301.92 361.87C302.36 355.55 305.62 357.08 305.62 357.08L311.07 361.44L311.51 363.62L309.33 364.71L308.89 367.76L308.83 367.77Z" fill="white"/>
<path d="M206.02 393.04C205.37 390.86 203.41 397.83 204.93 398.92C206.45 400.01 211.46 398.92 211.9 403.06C212.34 407.2 215.17 400.45 215.17 400.45L214.95 375.18L208.42 374.53L208.86 377.14H210.6C213.43 382.37 211.04 394.78 211.04 394.78C211.04 394.78 206.68 395.22 206.03 393.04H206.02Z" fill="white"/>
<path d="M338.67 114.22C337.58 113.13 330.17 113.35 330.39 114.66C330.83 116.4 333.66 118.58 333.66 118.58C333.66 118.58 339.11 119.02 339.54 120.1C339.98 121.19 343.46 121.62 343.9 120.54C344.12 119.45 345.64 117.27 342.38 117.27C339.12 117.27 339.77 115.31 338.68 114.22H338.67Z" fill="white"/>
<path d="M318.85 583.41L316.67 585.37L315.58 586.25L316.67 587.12L319.29 588.86L320.6 587.12L319.07 586.03L320.16 585.16L318.85 583.41Z" fill="white"/>
<path d="M217.13 413.08L214.51 411.99L214.95 406.54L217.13 406.11L217.35 403.49L211.9 407.2L208.42 405.02V413.73L214.08 421.57L216.26 416.34L217.13 413.08Z" fill="white"/>
<path d="M588.3 519.59C589.39 517.85 589.82 516.76 589.61 515.45C589.17 513.49 587 512.84 586.78 512.84L586.13 515.02C586.35 515.02 586.57 515.24 586.78 515.46L587.22 517.42C587 517.64 586.78 517.86 586.78 518.07L588.3 519.59Z" fill="white"/>
<path d="M666.279 430.72L667.589 432.46C668.899 431.59 670.859 431.15 671.079 431.37V431.15L673.039 430.93C672.819 430.28 672.599 429.62 671.949 429.41C670.429 428.76 667.589 429.85 666.289 430.72H666.279Z" fill="white"/>
<path d="M354.579 565.77C357.189 566.42 373.749 567.29 374.399 566.21C373.749 562.94 383.549 562.07 387.469 565.12C391.389 567.95 396.839 566.21 396.839 566.21L402.289 572.74L405.989 580.8L412.089 582.54L416.449 583.63L417.969 589.95L421.239 590.39L422.329 594.53C426.249 597.36 421.239 603.68 421.239 603.68V611.74L424.069 613.26L423.629 616.31L428.419 621.1L433.869 621.54L447.589 636.13L458.479 639.4L460.219 645.28L463.049 644.84L465.229 643.1L473.939 642.66L478.299 638.52L483.089 637.87L523.389 603.67L519.689 601.49V593.43C526.219 588.64 526.659 580.14 520.339 579.49C515.769 578.84 517.729 574.04 522.079 573.17L524.689 572.08V568.81L532.969 561.19V555.31L514.889 540.28C506.829 537.45 514.889 519.8 520.339 520.02C525.789 520.46 519.899 492.79 519.899 492.79L517.069 491.27L517.719 482.34H513.799L507.269 490.84L505.529 496.72C504.879 504.34 482.439 503.04 481.349 501.95C480.259 500.86 472.639 497.59 472.639 497.59C472.639 497.59 466.759 492.8 465.669 494.32C464.579 495.84 459.569 492.58 459.569 493.67C459.569 494.76 454.779 491.06 454.779 491.06L447.589 488.45L453.039 487.36L451.949 483L461.319 487.79C462.409 489.31 467.199 488.88 467.199 488.88L468.719 490.62C468.719 490.62 471.549 490.18 473.509 492.36C475.249 494.54 484.839 492.8 484.839 492.8L487.449 494.98L491.369 496.5L502.699 496.94L503.139 489.97L505.319 487.79L504.879 483.43L507.489 481.25V477.55L509.669 476.9L510.109 468.84L511.849 468.4V450.76L506.399 445.53C505.959 447.27 500.299 447.27 500.299 447.27C500.299 447.27 498.779 449.88 497.689 449.88C496.599 449.88 499.209 453.15 498.339 455.33C497.689 457.51 494.639 457.51 494.639 457.51L489.189 459.04L487.669 460.78H481.789L481.139 455.99L487.669 454.25L491.369 452.51L493.109 448.81C493.549 445.11 497.899 445.54 497.899 445.54C497.899 445.54 506.179 438.57 506.609 435.3C507.049 432.03 509.879 422.88 514.889 422.88H524.259C527.959 421.36 526.869 416.56 526.869 416.56L531.659 415.91L532.309 418.52C532.309 418.52 538.839 419.17 539.499 418.08C540.149 416.99 541.679 414.38 543.419 415.47C545.159 416.56 551.039 412.86 551.039 412.86C551.479 410.25 560.409 411.34 560.409 411.34L561.499 408.07C561.499 408.07 555.399 399.57 554.309 399.57C553.219 399.57 547.339 394.34 546.689 396.3C540.809 394.78 541.239 386.72 541.239 386.72L539.059 381.49C539.059 378.44 533.609 372.34 532.529 372.99C527.079 368.85 531.009 364.28 532.529 363.84C534.049 363.4 537.539 358.39 537.539 358.39L539.279 353.16L545.379 351.42L546.029 346.63L542.759 346.19C542.759 346.19 546.459 339.66 548.209 339.66C549.959 339.66 561.929 339.66 563.019 339.01C564.109 338.36 566.289 332.48 566.289 331.39C566.289 330.3 569.119 329.87 570.209 329.65C571.299 329.21 573.909 326.38 574.569 324.86C576.529 321.16 574.129 312.01 572.609 313.53C571.089 315.05 567.819 315.71 567.819 315.71L566.729 319.85L564.989 321.37C564.989 321.37 565.429 322.46 564.989 325.07C564.549 327.68 561.289 329.21 561.289 329.21L559.769 330.95C559.769 330.95 551.059 331.39 549.969 330.95C546.699 329.43 548.879 325.07 551.059 325.5C553.239 325.94 550.619 319.18 550.619 319.18L553.449 318.74C553.449 318.74 553.889 312.21 554.969 312.21C556.049 312.21 554.529 310.03 553.229 308.94C551.709 307.85 549.959 304.15 548.439 304.58C546.919 305.02 541.249 304.58 541.249 304.58L540.159 306.76L536.239 307.41C536.239 307.41 536.679 310.24 535.799 311.11C533.619 313.72 525.339 319.17 528.829 310.02L529.919 307.84V304.57L523.389 304.13C523.389 304.13 520.119 303.04 520.119 301.52C520.119 300 519.679 298.25 519.679 298.25L512.059 289.75L502.909 288.66L502.259 286.92L496.809 286.27C490.279 283 484.389 285.83 485.479 291.5C486.569 296.95 488.309 299.12 484.829 299.12C481.129 299.12 480.469 296.29 480.469 296.29C480.469 296.29 477.639 295.2 477.639 296.73C477.639 298.26 476.549 301.09 477.639 302.61C478.729 304.13 476.119 306.31 475.029 305.22C473.939 304.13 471.109 300.86 471.759 299.77C472.409 298.68 466.749 291.71 472.409 290.62C478.289 289.53 471.969 286.26 474.149 285.39L476.979 283.87H479.809L481.549 282.35L476.759 281.7L473.929 281.26L468.479 280.82C463.029 284.52 461.949 288.88 461.949 288.88C459.119 294.33 452.149 286.7 454.759 283.65C457.369 280.6 446.699 283.21 444.959 284.74C443.219 286.26 437.769 285.39 437.769 285.39C436.679 288.66 431.669 284.95 432.979 282.78C434.499 280.6 434.499 279.08 434.499 279.08L432.759 278.64L430.579 282.78C425.569 282.78 424.049 285.61 425.129 287.57C426.219 289.31 423.609 287.13 422.949 289.75C422.299 292.36 423.389 292.36 425.559 293.45C427.729 294.54 424.469 294.54 425.999 296.28C427.519 298.02 431.879 296.28 429.269 298.89C426.659 301.5 421.649 300.41 421.649 300.41C421.209 303.68 414.459 303.02 413.589 301.93C412.939 300.84 407.489 294.31 407.489 294.31L400.519 293.87C399.869 288.64 403.789 291.26 405.309 287.34C406.829 283.2 407.489 276.67 407.489 276.67C407.489 276.67 401.609 276.23 401.389 278.19C400.949 279.93 397.469 281.24 397.469 281.24C397.469 281.24 394.639 282.33 395.729 283.85C396.819 285.37 393.549 286.03 393.549 286.03C393.549 286.03 394.199 288.43 393.109 289.3C390.279 292.35 382.869 289.74 381.779 288.65L377.419 286.91L373.059 284.08L368.049 286.26L366.529 287.79H361.079L360.639 292.15L370.439 293.24L371.089 302.39L367.169 301.08H364.559L363.469 298.9L361.289 298.46V306.52L363.469 308.26L365.209 310L368.909 310.44L369.559 314.8L378.709 315.24L379.799 316.98L385.249 317.42L395.709 328.09L395.059 331.36L393.319 332.45C393.969 335.06 388.529 333.54 388.529 333.54V335.72L391.139 336.16L393.749 337.68L397.449 331.36C401.369 328.75 403.329 332.45 403.549 334.63C403.989 336.81 401.809 336.37 401.809 336.37V341.6L403.989 342.25C407.689 346.61 402.469 349.22 402.469 349.22L401.379 352.92C400.289 356.19 396.369 355.53 396.369 355.53L394.849 357.71L390.489 358.8L398.989 359.89C399.859 356.84 402.039 356.19 403.129 357.71C404.219 359.23 404.219 361.85 404.219 361.85L406.399 362.29L405.959 366.43L408.139 367.08V378.84L410.749 381.67C415.109 379.93 415.109 382.76 412.929 384.28C410.749 385.8 412.279 392.34 412.279 392.34L410.539 394.08V397.13L408.359 398.66V402.8C404.659 401.06 400.299 401.71 399.209 402.8C395.939 400.62 388.969 401.28 388.969 403.24C391.149 406.07 386.359 406.94 386.359 406.94L383.749 409.77C385.489 413.47 382.009 413.91 382.009 413.91V420.88L377.649 425.02L378.089 434.6C378.089 437.21 383.539 437.43 384.619 436.12C385.709 434.6 390.069 439.17 390.069 439.17H393.339L393.989 432.64L391.809 431.55V420.88L395.509 416.74C399.869 415.22 398.339 426.32 398.339 427.41C398.779 431.55 400.519 431.11 402.259 430.24C405.959 428.72 402.909 434.38 400.079 433.94C397.249 433.5 398.989 437.64 398.989 437.64L400.729 438.29L397.459 440.9L394.629 444.17L390.929 443.08L386.569 442.64L385.049 440.03L382.439 439.59L381.999 444.82L380.259 447L375.899 451.36C381.779 451.36 375.249 455.5 373.719 455.5C376.989 456.59 373.279 459.86 365.009 457.24V459.85L362.179 460.29L364.789 463.12L367.619 463.56L366.529 469.88C366.529 474.67 354.549 471.4 353.459 470.32L353.019 476.85L350.839 477.29L351.279 481.65L350.839 487.97L354.759 487.32V489.93L364.559 490.37L378.719 475.34L386.999 473.6C387.649 469.9 391.359 474.25 391.359 474.25C395.059 473.81 395.719 476.43 395.719 476.43L400.509 477.08C404.429 478.17 402.029 478.61 402.249 480.13C402.689 482.31 404.429 481.65 404.429 481.65L405.079 476.86L407.259 477.3L405.079 474.69L401.159 472.95L396.799 471.21C393.969 467.07 397.449 467.94 400.499 468.38H405.289C405.289 468.38 410.739 475.79 410.739 477.53C410.739 479.27 413.349 479.71 413.349 479.71L416.619 479.27L417.709 481.88H420.979L422.069 484.06H428.599L429.039 480.79L422.939 479.7L422.499 476L418.139 474.91C416.619 468.59 419.229 466.85 420.969 469.68L423.149 470.12L422.499 464.67L425.109 464.02L424.459 456.4L422.279 455.75V453.14L431.429 453.58C430.779 448.79 431.869 446.61 431.869 446.61H434.479L434.919 448.35L446.029 449.44L446.219 449.22H446.249C450.609 451.83 448.429 455.1 446.899 455.75C445.369 456.4 442.979 456.4 442.979 456.4L442.329 457.92L432.959 458.57L432.309 462.27C427.519 461.62 425.779 466.63 426.859 469.24C427.949 471.85 426.859 474.03 426.859 474.03L430.779 475.77L435.789 474.25C436.439 470.55 439.709 469.89 442.759 467.72C445.589 465.54 450.379 471.86 448.859 474.69C447.339 477.52 447.339 478.83 447.339 478.83L447.779 482.1L444.079 483.62L441.249 485.14L440.809 486.88H431.009L429.269 488.62L424.479 489.06L422.949 491.24L419.679 491.68C419.679 491.68 414.229 494.29 416.409 497.13C418.589 500.18 407.259 499.74 404.869 495.61C404.219 499.31 400.079 496.05 400.079 496.05L396.159 494.96L395.719 489.51C395.069 485.81 388.099 485.81 388.529 488.42C388.969 491.03 375.459 489.51 375.459 489.51L371.099 491.69L367.179 494.09L366.739 495.83L360.209 496.48L357.379 498L356.289 495.82H353.459L350.629 499.96C343.009 500.4 335.819 504.75 336.469 506.49C337.119 508.23 333.639 510.19 333.639 510.19L330.369 511.28L328.189 514.55L323.829 516.07L323.179 523.69L320.999 525.21V528.48L318.389 529.13V530.87L314.689 531.31L316.869 536.76L319.699 538.28C324.709 538.93 322.529 545.25 322.529 545.25L325.359 545.69L326.879 549.83L329.709 555.71C330.799 560.07 334.069 558.98 335.589 558.76C337.109 558.32 338.419 563.12 338.419 563.12L352.799 563.56C352.799 563.56 352.149 565.08 354.539 565.74L354.579 565.77ZM453.899 438.56C452.809 437.47 451.289 438.56 449.539 437.47C447.799 436.38 449.539 430.06 449.099 428.76C448.659 427.24 455.199 425.06 454.109 428.32C453.019 431.59 454.109 433.11 454.109 433.11C458.899 428.75 462.819 433.55 462.389 434.63C461.949 435.72 464.999 436.81 466.749 435.72C468.489 434.63 470.669 438.99 470.019 441.17C469.369 443.35 462.829 442.91 462.399 440.73C461.959 438.55 460.879 439.21 460.219 440.29C459.569 441.38 456.299 442.03 454.339 440.94C454.069 440.81 453.969 440.67 453.879 440.54L453.909 440.51C453.469 439.86 454.779 439.42 453.909 438.55L453.899 438.56Z" fill="white"/>
<path d="M346.73 615.22L349.57 612.38L348.26 611.51L344.56 609.77L343.68 611.73L345.86 612.82L345.21 613.69L346.73 615.22Z" fill="white"/>
<path d="M211.47 447.71L214.51 447.27V444.66L211.47 445.1V447.71Z" fill="white"/>
<path d="M62.4693 504.3V503.04H61.8193C62.0293 503.46 62.2493 503.88 62.4693 504.3Z" fill="white"/>
<path d="M350 277.81L353.05 278.68L353.49 276.5L350.65 275.63L350 277.81Z" fill="white"/>
<path d="M355.449 273.45L353.049 273.02L352.609 275.19L355.229 275.63L355.449 273.45Z" fill="white"/>
<path d="M349.545 278.717L347.368 279.153L347.804 281.33L349.98 280.894L349.545 278.717Z" fill="white"/>
<path d="M221.27 443.57C222.109 443.57 222.79 442.889 222.79 442.05C222.79 441.211 222.109 440.53 221.27 440.53C220.431 440.53 219.75 441.211 219.75 442.05C219.75 442.889 220.431 443.57 221.27 443.57Z" fill="white"/>
<path d="M217.779 425.93L215.169 426.36L214.949 429.2L217.779 429.63V425.93Z" fill="white"/>
<path d="M218.87 435.94C219.709 435.94 220.39 435.259 220.39 434.42C220.39 433.58 219.709 432.9 218.87 432.9C218.03 432.9 217.35 433.58 217.35 434.42C217.35 435.259 218.03 435.94 218.87 435.94Z" fill="white"/>
<path d="M85.9996 527.65L84.2596 522.64L78.8096 520.03L81.2096 526.56L82.7296 529.83L85.5596 533.97L89.6996 537.67L91.0096 535.06L88.6096 529.61L85.9996 527.65Z" fill="white"/>
<path d="M221.49 401.53C222.329 401.53 223.01 400.849 223.01 400.01C223.01 399.171 222.329 398.49 221.49 398.49C220.65 398.49 219.97 399.171 219.97 400.01C219.97 400.849 220.65 401.53 221.49 401.53Z" fill="white"/>
<path d="M375.49 100.28C375.05 98.5397 371.57 93.7497 371.13 97.4497C370.69 101.15 368.52 101.15 368.95 103.77C369.6 106.17 370.69 110.09 372 110.52C377.66 112.26 379.62 110.96 380.06 109.43C380.5 107.91 380.71 107.69 382.89 107.25C385.07 106.81 382.45 102.46 380.28 102.89C378.1 103.33 375.92 102.24 375.49 100.28Z" fill="white"/>
<path d="M428.85 117.93L426.02 117.27V120.54L429.94 120.97L428.85 117.93Z" fill="white"/>
<path d="M390.08 275.19H387.25V277.37H390.08V275.19Z" fill="white"/>
<path d="M547.349 549.87L550.619 551.39L551.059 557.71C555.419 562.07 569.579 558.36 569.579 557.27C569.579 556.18 568.929 543.76 568.929 543.76L567.189 542.02L566.749 532.87C568.269 528.08 559.779 521.11 559.129 522.63C558.479 524.15 553.679 523.07 553.679 524.37C553.679 525.89 550.849 533.08 552.159 535.7C553.679 538.31 551.069 538.31 550.639 540.93C550.199 543.11 546.499 547.46 547.369 549.86L547.349 549.87Z" fill="white"/>
<path d="M390.52 281.51L392.69 281.29V278.68L390.52 278.9V281.51Z" fill="white"/>
<path d="M377.449 273.45L379.839 273.67L380.279 271.49L377.659 271.27L377.449 273.45Z" fill="white"/>
<path d="M587.21 301.99L584.38 301.55L577.85 302.64L574.15 309.61C574.15 309.61 575.89 310.7 577.42 313.31C578.94 315.92 579.6 330.95 575.24 333.57C570.88 336.18 575.68 334.66 575.68 334.66L575.03 342.72C576.12 346.42 577.86 344.46 578.95 342.72C580.04 340.98 581.13 340.54 582.65 338.58C584.17 336.84 586.35 333.35 586.57 330.96C587.01 328.35 588.75 324.43 587.66 323.34C586.57 322.25 588.75 317.02 588.75 317.02C588.75 317.02 590.27 313.97 588.75 311.14C587.23 308.09 589.19 304.82 590.27 303.52L587.22 302L587.21 301.99Z" fill="white"/>
<path d="M442.58 43.4298C440.84 44.0798 437.13 43.8698 437.13 43.8698H430.6C430.16 41.2598 424.5 42.3498 424.07 43.8698C423.85 45.1798 421.67 45.6098 421.67 45.6098L413.39 46.2598C412.52 48.4398 408.38 49.9598 407.94 48.4398C407.07 45.1698 402.49 52.5798 407.29 53.8898C412.08 55.4098 416.66 53.8898 416.66 53.8898L417.75 51.7098L435.83 52.1498C437.35 50.6298 438.01 48.4498 438.01 48.4498C438.01 48.4498 442.37 46.9298 444.11 47.7998C445.85 48.4498 444.55 42.5698 442.59 43.4398L442.58 43.4298Z" fill="white"/>
<path d="M435.609 274.98C435.609 276.07 438.219 277.16 439.529 277.16C441.049 277.16 444.979 274.11 444.979 274.11C444.979 274.11 446.719 268.88 445.419 269.32C443.899 269.76 441.059 271.93 440.629 269.76C440.189 267.58 435.839 268.67 435.839 268.67L430.389 269.32L429.949 271.93L433.869 272.37C433.869 272.37 435.609 273.89 435.609 274.98Z" fill="white"/>
<path d="M411.649 273.45L412.299 275.63L413.389 275.19L412.729 273.23L411.649 273.45Z" fill="white"/>
<path d="M567.169 398.7C568.689 399.14 570.219 399.79 568.689 395.43C567.159 391.07 558.449 394.78 559.979 396.95C562.159 399.78 565.859 398.26 567.169 398.69V398.7Z" fill="white"/>
<path d="M382.02 274.54L384.64 274.98L384.85 272.8L382.24 272.36L382.02 274.54Z" fill="white"/>
<path d="M450.82 41.0699C450.65 41.0199 450.48 40.9799 450.31 40.9199L450.64 41.2499L450.82 41.0699Z" fill="white"/>
<path d="M596.8 237.29C596.8 237.29 601.16 238.38 601.59 239.9C602.03 241.42 603.77 244.69 603.77 244.69L607.47 247.74L607.91 251.01L611.83 251.45L612.92 255.81L619.45 255.37L623.15 252.76C627.94 250.15 631.21 246.88 631.43 245.35C631.87 243.83 632.52 238.38 636.22 239.47C639.92 240.56 637.31 231.41 637.31 231.41C637.31 231.41 632.3 227.71 632.52 225.96C632.96 224.22 627.51 220.51 627.73 218.99C628.17 217.47 622.94 214.63 623.37 213.11C623.81 211.59 620.76 207.66 620.76 207.66L615.31 202.43L614.66 199.16L610.3 198.72L601.59 188.05L602.03 185L599.42 184.56V180.42L596.81 178.9L592.89 178.46L584.83 169.75L584.18 165.61H580.26L580.91 157.99C583.52 154.72 582 148.41 582 148.41C582 148.41 576.99 151.02 574.38 149.93C571.77 148.84 575.47 146.23 575.47 146.23V143.4L573.29 141.22C573.29 141.22 567.19 141.87 566.76 140.78C566.32 139.69 565.24 134.9 565.24 134.9L564.8 128.58L562.19 127.49L561.75 125.31L557.83 125.75V121.39L555.65 120.74L553.47 119.65L553.03 115.29L544.97 114.85L542.36 111.15L539.53 106.79L530.38 106.14L528.2 103.96L524.5 103.31L521.89 102.22L520.8 103.96L513.83 104.4L513.39 106.58C510.34 108.1 495.96 106.58 495.53 107.67C494.44 110.94 494.01 115.29 492.26 115.29C490.51 115.29 491.17 120.08 491.17 120.08C491.17 120.08 495.96 120.08 497.27 120.52C498.79 120.96 498.79 124.66 498.79 124.66C504.24 124.22 506.41 131.63 505.76 133.59C505.11 135.33 507.94 135.33 507.94 135.33C507.94 135.33 507.94 141.21 507.29 142.74C506.64 144.27 512.08 145.35 513.39 147.53C514.91 149.71 512.74 157.11 511.65 157.55C510.56 157.99 514.48 159.07 514.26 160.82C513.82 162.56 515.35 160.82 515.78 163.87C516.22 166.7 516.87 173.02 516.87 173.02L521.88 173.46C522.53 168.67 531.9 168.45 533.42 169.1C539.52 171.28 544.31 180.86 544.31 183.04C544.31 185.22 540.39 185.65 540.39 185.65L541.04 196.32C547.14 198.06 552.37 206.99 551.5 208.52C550.85 210.04 555.86 209.61 555.86 209.61C556.51 203.08 562.83 205.25 563.05 207.43C563.49 209.61 564.57 214.4 564.57 214.4L566.31 217.67L568.92 220.28L572.84 219.84L573.93 222.02L578.72 222.67C578.72 222.67 582.64 227.03 583.08 228.12C583.52 229.21 588.96 228.77 590.27 229.21C591.79 229.65 593.97 230.73 594.19 232.48C594.63 234.22 596.8 237.27 596.8 237.27V237.29Z" fill="white"/>
<path d="M593.959 314.4L591.789 314.18L591.569 317.02L593.749 317.45L593.959 314.4Z" fill="white"/>
<path d="M62.9199 505.17C63.8399 506.95 64.7099 508.76 65.6599 510.52L65.3099 506.09L62.9199 505.17Z" fill="white"/>
<path d="M593.09 505.43L589.61 505L589.39 508.27L592.87 508.48L593.09 505.43Z" fill="white"/>
<path d="M539.29 535.06C538.64 537.89 536.02 539.42 534.5 538.33C532.98 537.24 536.24 540.07 537.11 541.6C537.76 543.12 539.94 543.12 540.81 541.6C541.46 540.08 541.25 536.81 541.9 535.28C542.55 533.97 539.72 533.54 539.29 535.06Z" fill="white"/>
<path d="M558.679 350.78L557.589 351.43L554.969 352.96L552.579 351.43L551.489 353.39L554.319 355.14L554.969 355.57L555.409 355.14L557.589 354.05L557.799 354.7L559.979 353.83L559.109 352.09L558.679 350.78Z" fill="white"/>
<path d="M571.75 348.38L567.82 347.73L567.39 349.91L571.31 350.56L571.75 348.38Z" fill="white"/>
<path d="M525.13 467.75H522.52V474.72H525.13V467.75Z" fill="white"/>
<path d="M415.779 272.8L415.129 269.53L412.949 269.97L413.819 273.23L415.779 272.8Z" fill="white"/>
<path d="M566.72 253.22L566.74 253.41C566.74 253.41 567.03 253.23 566.72 253.22Z" fill="white"/>
<path d="M570.66 231.19C569.35 232.28 568.26 228.58 566.74 229.01C565.22 229.45 564.56 227.48 563.04 225.74C561.73 224 561.95 223.56 560.21 222.47C558.47 221.38 557.38 221.38 557.38 222.91C557.38 224.44 559.12 225.31 558.47 227.05C557.82 228.79 559.12 230.32 560.65 230.32C561.96 230.32 563.05 231.19 564.57 231.84C566.09 232.49 567.18 233.58 568.27 235.11L571.76 233.8C571.76 233.8 572.2 230.1 570.67 231.19H570.66Z" fill="white"/>
<path d="M552.58 253.41L553.669 257.11L562.38 256.67C562.38 256.67 559.979 254.93 563.899 253.84C565.719 253.33 566.439 253.21 566.709 253.22L566.289 249.27L563.02 247.09L561.93 242.73C561.93 242.73 557.789 243.38 558.229 245.56C558.669 247.74 552.35 247.74 549.52 249.26L552.57 253.4L552.58 253.41Z" fill="white"/>
<path d="M433.859 107.69C436.689 107.69 438.649 109.87 438.649 110.96C438.649 112.05 442.569 111.61 442.569 111.61L443.009 109L440.179 105.3L437.569 103.56C437.569 103.56 433.649 103.12 433.649 102.04C433.649 101.17 429.509 104.44 428.859 105.53C429.509 106.62 433.869 107.71 433.869 107.71L433.859 107.69Z" fill="white"/>
<path d="M543.43 256.9H541.25V259.51H543.43V256.9Z" fill="white"/>
<path d="M537.549 273.89C539.289 273.89 540.819 273.45 539.729 271.71C538.639 269.75 535.369 270.19 535.369 270.19C535.369 270.19 531.009 271.28 527.089 269.1C523.169 266.7 527.959 266.05 528.609 266.05C529.479 266.05 532.749 263.44 531.219 261.69C529.699 259.73 531.219 256.46 531.219 257.99C531.219 259.52 535.359 260.17 536.009 259.08C536.879 257.99 536.009 254.72 534.269 253.63C532.309 252.54 537.539 251.67 536.009 249.93C534.489 247.97 533.829 245.79 533.829 245.79C533.829 245.79 531.649 248.84 527.299 247.31C527.299 247.31 526.649 254.28 524.469 255.81H519.459C519.459 255.81 520.549 257.77 521.639 258.86C522.729 259.95 525.339 262.13 522.729 263.65C520.329 265.17 523.169 264.74 523.169 264.74C523.169 264.74 522.729 272.36 519.469 271.27C516.199 270.18 515.109 275.19 515.109 276.72C515.109 278.25 527.959 278.68 525.999 276.72C524.909 275.63 527.089 273.23 527.089 273.23C527.089 273.23 535.799 273.88 537.549 273.88V273.89Z" fill="white"/>
<path d="M546.039 258.2L544.949 260.38L546.909 261.47L547.999 259.07L546.039 258.2Z" fill="white"/>
<path d="M575.879 243.83C575.879 243.18 573.269 242.31 572.179 242.09C571.089 241.65 569.349 238.39 569.349 238.39L564.779 238.61C565.869 240.13 568.049 241.22 568.049 242.75C568.049 244.28 567.399 245.36 569.569 245.58C571.749 246.02 573.269 245.14 573.929 247.1C574.579 248.84 574.579 251.89 574.369 253.42C573.929 254.94 574.809 257.12 576.549 257.12C578.289 257.12 578.729 257.56 578.729 258.64C578.729 259.72 580.909 254.5 580.909 254.5C579.169 252.98 577.639 249.71 577.639 249.71C577.639 249.71 575.899 244.48 575.899 243.83H575.879Z" fill="white"/>
<path d="M578.28 298.28L580.02 294.58L581.76 295.02V292.84L577.84 291.75L577.19 279.99L574.58 278.25L575.23 275.2L572.4 274.11L573.92 269.32L571.31 264.53H566.09C566.29 264.43 566.12 263.76 562.59 260.39C557.58 255.6 554.31 261.48 554.31 261.48L548.43 262.13V268.01L545.6 269.1L546.04 272.8L549.96 272.36C549.96 272.36 549.96 276.72 551.05 274.97C552.14 273.23 561.29 275.41 560.42 279.76C560.2 281.5 569.57 286.29 568.48 292.18C573.27 292.83 572.18 297.63 572.18 297.63L578.28 298.28Z" fill="white"/>
<path d="M592.44 325.08L590.48 323.99L589.39 326.16L591.35 327.25L592.44 325.08Z" fill="white"/>
<path d="M534.5 239.69L530.79 239.91L531.01 242.08L534.72 241.87L534.5 239.69Z" fill="white"/>
<path d="M424.709 109.21L422.319 105.29L421.879 104.86H421.449L417.739 104.42L417.529 106.6L420.579 106.82L422.969 110.52L424.709 109.21Z" fill="white"/>
<path d="M427.11 272.36V270.18L419.05 270.4L419.27 272.58L427.11 272.36Z" fill="white"/>
<path d="M425.37 101.81L427.33 102.68L428.85 99.4098L426.89 98.3198L425.37 101.81Z" fill="white"/>
<path d="M539.07 242.08H536.89V243.82H539.07V242.08Z" fill="white"/>
<path d="M479.61 265.39C477.87 266.91 477.43 265.39 474.16 266.48C470.89 267.57 463.92 266.92 463.7 265.39C463.26 263.87 458.25 263.21 458.25 261.69C458.25 260.17 454.55 258.42 454.98 260.6C455.42 262.78 452.37 263.87 451.71 263.21C450.62 262.34 448.44 265.39 448.44 265.39C448.44 266.48 447.79 268 449.96 268.44C452.14 268.88 456.06 266.92 456.49 269.09C456.92 271.26 456.93 272.79 459.76 273.88C462.59 274.97 464.55 275.4 466.73 275.4C468.91 275.4 473.7 274.75 473.7 274.75C473.7 274.75 478.93 275.62 479.8 276.49C483.72 280.63 486.33 281.72 487.42 279.76C488.51 278.02 486.98 273.88 486.77 272.35C486.33 270.83 481.32 263.85 479.58 265.38L479.61 265.39Z" fill="white"/>
<path d="M483.09 161.27H479.17C479.17 161.27 478.95 164.1 476.34 163.01C473.73 161.92 475.25 162.36 473.07 161.92C470.89 161.7 471.55 166.71 471.98 168.24C471.98 168.24 470.45 173.47 469.8 175.65C469.58 177.83 474.16 177.83 475.68 177.39C477.2 177.17 479.6 172.38 478.95 169.77C478.3 167.37 482 166.28 483.74 169.12L487.44 168.68L488.09 165.41L483.08 161.27H483.09Z" fill="white"/>
<path d="M507.049 283.04C507.049 283.04 510.319 281.52 509.659 280.43C508.789 279.34 504.429 279.56 502.689 279.99C500.949 280.43 501.379 281.95 502.689 283.69L507.049 283.04Z" fill="white"/>
<path d="M500.3 274.1L499.21 276.72L501.17 277.59L502.26 274.98L500.3 274.1Z" fill="white"/>
<path d="M489.84 270.84L493.55 270.4L493.33 268.22L489.63 268.66L489.84 270.84Z" fill="white"/>
<path fill-rule="evenodd" clip-rule="evenodd" d="M35.6497 138.6C34.4997 132.94 33.8896 127.08 33.8896 121.08C33.8896 115.08 34.4997 109.22 35.6497 103.56C38.5197 89.4001 44.8296 76.5001 53.6396 65.7201C59.2796 58.8301 65.9596 52.8401 73.4196 47.9301H73.4396C87.2196 38.8701 103.7 33.5601 121.43 33.5601C131.57 33.5601 141.26 35.3701 150.32 38.5401C163.38 43.1201 175.03 50.6601 184.43 60.4201C187.02 63.1101 189.41 65.9801 191.64 68.9901C201.64 82.4401 207.84 98.8401 208.73 116.68C208.754 117.192 208.788 117.701 208.822 118.209C208.886 119.16 208.95 120.109 208.95 121.08C208.95 127.86 208.11 134.42 206.65 140.76C205.26 146.78 203.25 152.55 200.69 158.02C186.75 187.88 156.54 208.61 121.42 208.61C103.59 208.61 87.0296 203.25 73.1996 194.1C67.3796 190.25 62.0996 185.69 57.3696 180.6C46.6296 169.05 38.9097 154.65 35.6497 138.6ZM197.88 138.735C199.204 132.988 199.95 127.109 199.95 121.08C199.95 120.36 199.916 119.884 199.867 119.205C199.83 118.691 199.785 118.06 199.74 117.119C198.94 101.111 193.383 86.4183 184.417 74.3599L184.413 74.3538L184.408 74.3477C182.38 71.6101 180.237 69.042 177.947 66.6633C169.518 57.9118 159.068 51.1457 147.344 47.0339C139.171 44.1747 130.485 42.5601 121.43 42.5601C105.525 42.5601 90.7534 47.3177 78.384 55.4503L77.2927 56.1677C71.0139 60.4459 65.3879 65.5772 60.6065 71.4177C52.6911 81.1037 47.0396 92.6713 44.4703 105.348L44.4694 105.352C43.4374 110.432 42.8896 115.691 42.8896 121.08C42.8896 126.469 43.4374 131.728 44.4694 136.808L44.4696 136.809C47.3843 151.159 54.294 164.076 63.9605 174.471L63.9625 174.474C68.244 179.081 72.9844 183.167 78.1651 186.594L78.1656 186.594C90.5794 194.807 105.422 199.61 121.42 199.61C152.897 199.61 180.011 181.04 192.535 154.213L192.538 154.205C194.834 149.299 196.635 144.129 197.88 138.735Z" fill="white"/>
<path d="M173.139 76.81L122.039 59.78C120.849 59.38 119.599 59.38 118.459 59.78L67.3595 76.81C65.0295 77.6 63.4395 79.76 63.4395 82.2V113.48C63.4395 148.17 85.5195 178.77 118.399 189.78C118.969 189.95 119.589 190.06 120.219 190.06C120.849 190.06 121.409 189.95 122.039 189.78C154.909 178.82 176.999 148.17 176.999 113.48V82.2C176.999 79.76 175.409 77.6 173.139 76.81ZM165.639 113.48C165.639 142.6 147.469 168.44 120.219 178.37C92.9695 168.43 74.7995 142.6 74.7995 113.48V86.29L120.219 71.13L165.639 86.29V113.48Z" fill="white"/>
<path d="M144.02 513.49H158.31C158.862 513.49 159.31 513.042 159.31 512.49V498.2C159.31 497.648 158.862 497.2 158.31 497.2H144.02C143.467 497.2 143.02 497.648 143.02 498.2V512.49C143.02 513.042 143.467 513.49 144.02 513.49Z" fill="#40C4F1"/>
<path d="M541.47 114.26H526.75V128.98H541.47V114.26Z" fill="#40C4F1"/>
<path d="M575.28 261.87H546.64L560.2 233.23L575.28 261.87Z" fill="#40C4F1"/>
<path d="M124.18 459.69H101C99.945 459.69 99.0898 460.545 99.0898 461.6V484.78C99.0898 485.835 99.945 486.69 101 486.69H124.18C125.235 486.69 126.09 485.835 126.09 484.78V461.6C126.09 460.545 125.235 459.69 124.18 459.69Z" fill="#40C4F1"/>
<path d="M176.62 451.2H146.11L160.55 420.7L176.62 451.2Z" fill="#40C4F1"/>
<path d="M355.03 0C294.92 0 238.33 14.99 188.71 41.36C193.75 45.56 198.31 50.28 202.44 55.37C248.25 31.99 300.08 18.73 355.04 18.73C540.78 18.73 691.35 169.3 691.35 355.04C691.35 540.78 540.78 691.35 355.04 691.35C169.3 691.35 18.73 540.77 18.73 355.03C18.73 300.07 32 248.24 55.37 202.43C50.28 198.31 45.56 193.75 41.36 188.7C14.99 238.32 0 294.91 0 355.03C0 551.11 158.95 710.07 355.04 710.07C551.13 710.07 710.08 551.11 710.08 355.03C710.08 158.95 551.12 0 355.03 0Z" fill="white"/>
<path d="M477.9 570.51V555.78L465.15 548.42L452.39 555.78V570.51L465.15 577.88L477.9 570.51Z" fill="#40C4F1"/>
<path d="M626.03 233.38V224.38L618.24 219.88L610.45 224.38V233.38L618.24 237.88L626.03 233.38Z" fill="#40C4F1"/>
<path d="M187.9 501.07L463.38 567.22L500.41 519.19" stroke="#3DC6F1" stroke-width="2.47" stroke-miterlimit="10" stroke-linecap="round"/>
<path d="M458.89 142.59L534.06 172.99L534.11 121.62L598.85 197.94L560.96 247.55L618.24 228.88" stroke="#3DC6F1" stroke-width="2.47" stroke-miterlimit="10" stroke-linecap="round"/>
<path d="M534.06 172.99L558.84 253.01L475.21 264.82L460.54 149.8" stroke="#3DC6F1" stroke-width="2.47" stroke-miterlimit="10" stroke-linecap="round"/>
<path d="M508.45 333.87L558.84 253.01" stroke="#3DC6F1" stroke-width="2.47" stroke-miterlimit="10" stroke-linecap="round"/>
<path d="M860.49 464.97V508.76C860.46 514.84 858.55 519.8 854.76 523.67C850.97 527.54 845.83 529.7 839.35 530.17L837.1 530.26C830.05 530.26 824.43 528.36 820.25 524.56C816.07 520.75 813.94 515.52 813.88 508.86V464.99H822.28V508.6C822.28 513.26 823.56 516.88 826.13 519.46C828.7 522.04 832.36 523.33 837.1 523.33C841.84 523.33 845.58 522.05 848.13 519.48C850.68 516.91 851.96 513.3 851.96 508.64V464.99H860.5L860.49 464.97Z" fill="white"/>
<path d="M883.34 481.51L883.6 487.53C887.26 482.93 892.03 480.63 897.93 480.63C908.04 480.63 913.14 486.34 913.23 497.75V529.37H905.04V497.7C905.01 494.25 904.22 491.7 902.68 490.05C901.13 488.4 898.72 487.57 895.45 487.57C892.79 487.57 890.47 488.28 888.46 489.7C886.45 491.11 884.89 492.97 883.78 495.27V529.37H875.59V481.51H883.33H883.34Z" fill="white"/>
<path d="M928.609 468.82C928.609 467.49 929.009 466.37 929.819 465.46C930.629 464.55 931.839 464.09 933.429 464.09C935.019 464.09 936.229 464.55 937.049 465.46C937.879 466.37 938.289 467.49 938.289 468.82C938.289 470.15 937.879 471.25 937.049 472.14C936.229 473.02 935.019 473.47 933.429 473.47C931.839 473.47 930.629 473.03 929.819 472.14C929.009 471.25 928.609 470.15 928.609 468.82ZM937.459 529.37H929.269V481.51H937.459V529.37Z" fill="white"/>
<path d="M969.32 518.27L981.17 481.51H989.53L972.37 529.37H966.13L948.79 481.51H957.15L969.31 518.27H969.32Z" fill="white"/>
<path d="M1019.68 530.25C1013.19 530.25 1007.91 528.12 1003.84 523.86C999.77 519.6 997.74 513.9 997.74 506.77V505.26C997.74 500.51 998.64 496.28 1000.46 492.54C1002.27 488.81 1004.81 485.89 1008.07 483.78C1011.33 481.68 1014.86 480.62 1018.66 480.62C1024.88 480.62 1029.71 482.67 1033.16 486.77C1036.61 490.87 1038.34 496.74 1038.34 504.37V507.78H1005.92C1006.03 512.49 1007.41 516.3 1010.05 519.21C1012.69 522.12 1016.05 523.57 1020.12 523.57C1023.01 523.57 1025.45 522.98 1027.46 521.81C1029.47 520.63 1031.22 519.07 1032.73 517.12L1037.73 521.01C1033.72 527.17 1027.7 530.25 1019.69 530.25H1019.68ZM1018.66 487.35C1015.35 487.35 1012.58 488.55 1010.34 490.95C1008.1 493.35 1006.71 496.72 1006.18 501.06H1030.15V500.44C1029.91 496.28 1028.79 493.06 1026.79 490.78C1024.78 488.5 1022.07 487.35 1018.65 487.35H1018.66Z" fill="white"/>
<path d="M1073.93 488.85C1072.69 488.65 1071.35 488.55 1069.91 488.55C1064.54 488.55 1060.9 490.83 1058.99 495.4V529.37H1050.8V481.51H1058.76L1058.89 487.04C1061.57 482.76 1065.38 480.62 1070.3 480.62C1071.89 480.62 1073.1 480.83 1073.93 481.24V488.85Z" fill="white"/>
<path d="M1112.3 516.67C1112.3 514.46 1111.47 512.74 1109.81 511.52C1108.14 510.3 1105.24 509.24 1101.1 508.36C1096.96 507.47 1093.67 506.41 1091.24 505.18C1088.81 503.94 1087.01 502.47 1085.85 500.75C1084.68 499.04 1084.1 497.01 1084.1 494.65C1084.1 490.73 1085.76 487.41 1089.07 484.7C1092.38 481.99 1096.63 480.63 1101.79 480.63C1107.22 480.63 1111.61 482.03 1114.99 484.83C1118.36 487.64 1120.05 491.22 1120.05 495.58H1111.82C1111.82 493.34 1110.87 491.41 1108.97 489.79C1107.07 488.17 1104.67 487.36 1101.78 487.36C1098.89 487.36 1096.47 488.01 1094.8 489.3C1093.12 490.6 1092.28 492.29 1092.28 494.39C1092.28 496.37 1093.06 497.86 1094.63 498.86C1096.19 499.87 1099.02 500.83 1103.1 501.73C1107.19 502.64 1110.49 503.74 1113.03 505.01C1115.57 506.27 1117.44 507.8 1118.66 509.59C1119.88 511.38 1120.5 513.55 1120.5 516.11C1120.5 520.39 1118.79 523.81 1115.37 526.39C1111.95 528.97 1107.51 530.26 1102.06 530.26C1098.23 530.26 1094.84 529.58 1091.89 528.23C1088.94 526.88 1086.63 524.98 1084.97 522.55C1083.3 520.11 1082.47 517.49 1082.47 514.65H1090.65C1090.8 517.39 1091.9 519.56 1093.95 521.17C1096 522.78 1098.7 523.58 1102.06 523.58C1105.16 523.58 1107.64 522.95 1109.52 521.7C1111.4 520.45 1112.33 518.77 1112.33 516.68L1112.3 516.67Z" fill="white"/>
<path d="M1163.68 529.37C1163.21 528.43 1162.82 526.75 1162.53 524.33C1158.72 528.28 1154.18 530.26 1148.91 530.26C1144.19 530.26 1140.32 528.93 1137.3 526.26C1134.28 523.59 1132.77 520.21 1132.77 516.11C1132.77 511.13 1134.66 507.26 1138.45 504.5C1142.24 501.75 1147.57 500.37 1154.44 500.37H1162.4V496.61C1162.4 493.75 1161.54 491.47 1159.83 489.78C1158.12 488.08 1155.6 487.24 1152.27 487.24C1149.35 487.24 1146.9 487.98 1144.93 489.45C1142.95 490.93 1141.96 492.71 1141.96 494.8H1133.73C1133.73 492.41 1134.58 490.11 1136.27 487.88C1137.97 485.66 1140.27 483.9 1143.17 482.6C1146.07 481.3 1149.26 480.65 1152.74 480.65C1158.25 480.65 1162.58 482.03 1165.7 484.79C1168.82 487.54 1170.44 491.34 1170.56 496.18V518.21C1170.56 522.6 1171.12 526.1 1172.24 528.69V529.4H1163.66L1163.68 529.37ZM1150.1 523.13C1152.66 523.13 1155.1 522.47 1157.39 521.14C1159.68 519.81 1161.36 518.09 1162.39 515.97V506.15H1155.97C1145.94 506.15 1140.93 509.08 1140.93 514.95C1140.93 517.51 1141.79 519.52 1143.49 520.96C1145.2 522.41 1147.4 523.13 1150.08 523.13H1150.1Z" fill="white"/>
<path d="M1195.28 529.37H1187.09V461.44H1195.28V529.37Z" fill="white"/>
<path d="M1257.03 500.67C1249.75 498.58 1244.45 496 1241.13 492.95C1237.81 489.9 1236.15 486.13 1236.15 481.65C1236.15 476.58 1238.18 472.39 1242.23 469.07C1246.29 465.75 1251.55 464.09 1258.04 464.09C1262.46 464.09 1266.4 464.95 1269.87 466.66C1273.34 468.37 1276.02 470.73 1277.92 473.74C1279.82 476.75 1280.78 480.03 1280.78 483.6H1272.24C1272.24 479.69 1271 476.62 1268.52 474.39C1266.05 472.16 1262.55 471.04 1258.04 471.04C1253.86 471.04 1250.59 471.96 1248.24 473.81C1245.89 475.66 1244.72 478.21 1244.72 481.5C1244.72 484.13 1245.84 486.35 1248.06 488.17C1250.28 489.99 1254.07 491.65 1259.42 493.15C1264.77 494.65 1268.96 496.32 1271.98 498.13C1275 499.95 1277.25 502.06 1278.71 504.48C1280.17 506.9 1280.9 509.75 1280.9 513.02C1280.9 518.24 1278.87 522.42 1274.8 525.56C1270.73 528.7 1265.29 530.27 1258.48 530.27C1254.06 530.27 1249.93 529.42 1246.1 527.73C1242.27 526.03 1239.31 523.71 1237.23 520.76C1235.15 517.81 1234.11 514.47 1234.11 510.72H1242.64C1242.64 514.61 1244.08 517.69 1246.96 519.95C1249.83 522.2 1253.67 523.33 1258.48 523.33C1262.96 523.33 1266.4 522.42 1268.79 520.59C1271.18 518.76 1272.37 516.27 1272.37 513.12C1272.37 509.97 1271.27 507.53 1269.05 505.8C1266.84 504.08 1262.82 502.37 1257.02 500.7L1257.03 500.67Z" fill="white"/>
<path d="M1323.05 529.37C1322.58 528.43 1322.19 526.75 1321.9 524.33C1318.09 528.28 1313.55 530.26 1308.28 530.26C1303.56 530.26 1299.69 528.93 1296.67 526.26C1293.65 523.59 1292.14 520.21 1292.14 516.11C1292.14 511.13 1294.03 507.26 1297.82 504.5C1301.61 501.75 1306.94 500.37 1313.81 500.37H1321.77V496.61C1321.77 493.75 1320.91 491.47 1319.2 489.78C1317.49 488.08 1314.97 487.24 1311.64 487.24C1308.72 487.24 1306.27 487.98 1304.3 489.45C1302.32 490.93 1301.33 492.71 1301.33 494.8H1293.1C1293.1 492.41 1293.95 490.11 1295.64 487.88C1297.34 485.66 1299.64 483.9 1302.54 482.6C1305.44 481.3 1308.63 480.65 1312.11 480.65C1317.62 480.65 1321.95 482.03 1325.07 484.79C1328.19 487.54 1329.81 491.34 1329.93 496.18V518.21C1329.93 522.6 1330.49 526.1 1331.61 528.69V529.4H1323.03L1323.05 529.37ZM1309.47 523.13C1312.03 523.13 1314.47 522.47 1316.76 521.14C1319.06 519.81 1320.73 518.09 1321.76 515.97V506.15H1315.34C1305.31 506.15 1300.3 509.08 1300.3 514.95C1300.3 517.51 1301.16 519.52 1302.86 520.96C1304.57 522.41 1306.77 523.13 1309.45 523.13H1309.47Z" fill="white"/>
<path d="M1349.78 529.37V487.84H1342.22V481.52H1349.78V476.61C1349.78 471.48 1351.15 467.51 1353.9 464.71C1356.64 461.91 1360.52 460.51 1365.53 460.51C1367.42 460.51 1369.29 460.76 1371.15 461.25L1370.71 467.85C1369.32 467.59 1367.85 467.45 1366.28 467.45C1363.63 467.45 1361.58 468.23 1360.13 469.78C1358.68 471.33 1357.96 473.56 1357.96 476.46V481.52H1368.17V487.84H1357.96V529.37H1349.77H1349.78Z" fill="white"/>
<path d="M1398.99 530.25C1392.5 530.25 1387.22 528.12 1383.15 523.86C1379.08 519.6 1377.05 513.9 1377.05 506.77V505.26C1377.05 500.51 1377.95 496.28 1379.77 492.54C1381.58 488.81 1384.12 485.89 1387.38 483.78C1390.64 481.68 1394.17 480.62 1397.97 480.62C1404.19 480.62 1409.02 482.67 1412.47 486.77C1415.92 490.87 1417.65 496.74 1417.65 504.37V507.78H1385.23C1385.34 512.49 1386.72 516.3 1389.36 519.21C1392 522.12 1395.36 523.57 1399.43 523.57C1402.32 523.57 1404.76 522.98 1406.77 521.81C1408.78 520.63 1410.53 519.07 1412.04 517.12L1417.04 521.01C1413.03 527.17 1407.01 530.25 1399 530.25H1398.99ZM1397.97 487.35C1394.66 487.35 1391.89 488.55 1389.65 490.95C1387.41 493.35 1386.02 496.72 1385.49 501.06H1409.46V500.44C1409.22 496.28 1408.1 493.06 1406.1 490.78C1404.09 488.5 1401.38 487.35 1397.96 487.35H1397.97Z" fill="white"/>
<path d="M1428.16 505.04C1428.16 497.58 1429.88 491.65 1433.33 487.24C1436.78 482.83 1441.35 480.62 1447.04 480.62C1452.73 480.62 1457.43 482.68 1460.7 486.82L1461.1 481.51H1468.57V528.22C1468.57 534.41 1466.74 539.29 1463.06 542.86C1459.38 546.43 1454.46 548.21 1448.26 548.21C1444.81 548.21 1441.44 547.47 1438.13 546C1434.83 544.53 1432.31 542.5 1430.57 539.94L1434.81 535.03C1438.32 539.36 1442.61 541.53 1447.68 541.53C1451.66 541.53 1454.77 540.41 1456.99 538.17C1459.21 535.93 1460.33 532.78 1460.33 528.71V524.59C1457.06 528.37 1452.59 530.25 1446.93 530.25C1441.27 530.25 1436.79 528 1433.33 523.48C1429.86 518.97 1428.13 512.82 1428.13 505.03L1428.16 505.04ZM1436.39 505.97C1436.39 511.37 1437.49 515.6 1439.71 518.69C1441.92 521.77 1445.02 523.31 1449 523.31C1454.16 523.31 1457.94 520.96 1460.36 516.28V494.43C1457.85 489.86 1454.09 487.57 1449.08 487.57C1445.1 487.57 1441.99 489.12 1439.74 492.21C1437.5 495.31 1436.38 499.89 1436.38 505.97H1436.39Z" fill="white"/>
<path d="M1513.45 524.64C1510.27 528.38 1505.59 530.26 1499.43 530.26C1494.33 530.26 1490.45 528.78 1487.77 525.82C1485.1 522.85 1483.75 518.47 1483.72 512.66V481.52H1491.91V512.43C1491.91 519.68 1494.86 523.31 1500.76 523.31C1507.01 523.31 1511.16 520.98 1513.23 516.32V481.51H1521.42V529.37H1513.64L1513.46 524.64H1513.45Z" fill="white"/>
<path d="M1566.38 529.37C1565.91 528.43 1565.52 526.75 1565.23 524.33C1561.42 528.28 1556.88 530.26 1551.61 530.26C1546.89 530.26 1543.02 528.93 1540 526.26C1536.98 523.59 1535.47 520.21 1535.47 516.11C1535.47 511.13 1537.36 507.26 1541.15 504.5C1544.94 501.75 1550.27 500.37 1557.14 500.37H1565.1V496.61C1565.1 493.75 1564.24 491.47 1562.53 489.78C1560.82 488.08 1558.3 487.24 1554.97 487.24C1552.05 487.24 1549.6 487.98 1547.63 489.45C1545.65 490.93 1544.66 492.71 1544.66 494.8H1536.43C1536.43 492.41 1537.28 490.11 1538.97 487.88C1540.67 485.66 1542.97 483.9 1545.87 482.6C1548.77 481.3 1551.96 480.65 1555.44 480.65C1560.95 480.65 1565.28 482.03 1568.4 484.79C1571.52 487.54 1573.14 491.34 1573.26 496.18V518.21C1573.26 522.6 1573.82 526.1 1574.94 528.69V529.4H1566.36L1566.38 529.37ZM1552.8 523.13C1555.36 523.13 1557.8 522.47 1560.09 521.14C1562.38 519.81 1564.06 518.09 1565.09 515.97V506.15H1558.67C1548.64 506.15 1543.63 509.08 1543.63 514.95C1543.63 517.51 1544.49 519.52 1546.19 520.96C1547.9 522.41 1550.1 523.13 1552.78 523.13H1552.8Z" fill="white"/>
<path d="M1612.22 488.85C1610.98 488.65 1609.64 488.55 1608.2 488.55C1602.83 488.55 1599.19 490.83 1597.28 495.4V529.37H1589.09V481.51H1597.05L1597.18 487.04C1599.86 482.76 1603.67 480.62 1608.59 480.62C1610.18 480.62 1611.39 480.83 1612.22 481.24V488.85Z" fill="white"/>
<path d="M1619.9 505.04C1619.9 497.7 1621.64 491.8 1625.12 487.33C1628.6 482.86 1633.15 480.63 1638.78 480.63C1644.41 480.63 1648.82 482.55 1652.09 486.38V461.43H1660.28V529.36H1652.76L1652.36 524.23C1649.09 528.24 1644.54 530.24 1638.7 530.24C1632.86 530.24 1628.64 527.97 1625.15 523.43C1621.66 518.89 1619.91 512.96 1619.91 505.65V505.03L1619.9 505.04ZM1628.08 505.97C1628.08 511.4 1629.2 515.64 1631.44 518.71C1633.68 521.78 1636.77 523.31 1640.73 523.31C1645.92 523.31 1649.71 520.98 1652.09 516.32V494.34C1649.64 489.83 1645.88 487.57 1640.81 487.57C1636.8 487.57 1633.68 489.12 1631.43 492.21C1629.19 495.31 1628.07 499.89 1628.07 505.97H1628.08Z" fill="white"/>
<path d="M1703.83 516.67C1703.83 514.46 1703 512.74 1701.34 511.52C1699.67 510.3 1696.77 509.24 1692.63 508.36C1688.49 507.47 1685.2 506.41 1682.77 505.18C1680.34 503.94 1678.54 502.47 1677.38 500.75C1676.21 499.04 1675.63 497.01 1675.63 494.65C1675.63 490.73 1677.29 487.41 1680.6 484.7C1683.92 481.99 1688.16 480.63 1693.32 480.63C1698.75 480.63 1703.14 482.03 1706.52 484.83C1709.89 487.64 1711.58 491.22 1711.58 495.58H1703.35C1703.35 493.34 1702.4 491.41 1700.5 489.79C1698.6 488.17 1696.2 487.36 1693.31 487.36C1690.42 487.36 1688 488.01 1686.33 489.3C1684.65 490.6 1683.81 492.29 1683.81 494.39C1683.81 496.37 1684.59 497.86 1686.16 498.86C1687.72 499.87 1690.55 500.83 1694.63 501.73C1698.72 502.64 1702.02 503.74 1704.56 505.01C1707.1 506.27 1708.97 507.8 1710.19 509.59C1711.41 511.38 1712.03 513.55 1712.03 516.11C1712.03 520.39 1710.32 523.81 1706.9 526.39C1703.48 528.97 1699.04 530.26 1693.59 530.26C1689.76 530.26 1686.37 529.58 1683.42 528.23C1680.47 526.88 1678.16 524.98 1676.5 522.55C1674.83 520.11 1674 517.49 1674 514.65H1682.18C1682.33 517.39 1683.43 519.56 1685.48 521.17C1687.53 522.78 1690.23 523.58 1693.59 523.58C1696.69 523.58 1699.17 522.95 1701.05 521.7C1702.93 520.45 1703.86 518.77 1703.86 516.68L1703.83 516.67Z" fill="white"/>
<path d="M812.43 240.77V142.03H842.81C851.49 142.03 859.26 143.99 866.1 147.9C872.95 151.81 878.3 157.37 882.14 164.58C885.98 171.79 887.9 179.99 887.9 189.16V193.7C887.9 202.88 886.01 211.04 882.24 218.18C878.47 225.32 873.14 230.86 866.27 234.8C859.39 238.73 851.65 240.72 843.01 240.77H812.43ZM832.78 158.5V224.42H842.62C850.58 224.42 856.66 221.82 860.86 216.62C865.07 211.42 867.21 203.99 867.3 194.31V189.09C867.3 179.05 865.22 171.45 861.06 166.27C856.9 161.09 850.82 158.5 842.82 158.5H832.78Z" fill="white"/>
<path d="M924.329 240.77H903.989V142.03H924.329V240.77Z" fill="white"/>
<path d="M1021.3 228.29C1017.64 232.68 1012.46 236.08 1005.77 238.5C999.08 240.92 991.66 242.13 983.52 242.13C974.98 242.13 967.479 240.26 961.039 236.53C954.599 232.8 949.62 227.39 946.12 220.29C942.61 213.19 940.819 204.85 940.729 195.27V188.56C940.729 178.7 942.389 170.17 945.709 162.96C949.029 155.75 953.829 150.24 960.089 146.41C966.349 142.59 973.689 140.68 982.089 140.68C993.799 140.68 1002.96 143.47 1009.56 149.06C1016.16 154.64 1020.07 162.77 1021.29 173.44H1001.49C1000.58 167.79 998.579 163.65 995.479 161.03C992.389 158.41 988.119 157.1 982.699 157.1C975.779 157.1 970.509 159.7 966.899 164.9C963.279 170.1 961.449 177.83 961.399 188.09V194.4C961.399 204.75 963.369 212.57 967.299 217.86C971.229 223.15 976.999 225.79 984.589 225.79C992.179 225.79 997.679 224.16 1000.93 220.91V203.89H982.41V188.9H1021.27V228.3L1021.3 228.29Z" fill="white"/>
<path d="M1059.42 240.77H1039.08V142.03H1059.42V240.77Z" fill="white"/>
<path d="M1150.63 158.5H1120.38V240.76H1100.04V158.5H1070.2V142.02H1150.63V158.5Z" fill="white"/>
<path d="M1209.83 220.42H1174.16L1167.38 240.77H1145.75L1182.51 142.03H1201.36L1238.32 240.77H1216.69L1209.84 220.42H1209.83ZM1179.65 203.94H1204.34L1191.93 166.98L1179.65 203.94Z" fill="white"/>
<path d="M1267.88 224.42H1311.08V240.76H1247.54V142.02H1267.88V224.42Z" fill="white"/>
<path d="M1377.68 205.98V240.77H1357.34V142.03H1395.86C1403.27 142.03 1409.79 143.39 1415.42 146.1C1421.05 148.81 1425.38 152.67 1428.41 157.66C1431.44 162.65 1432.96 168.34 1432.96 174.72C1432.96 184.4 1429.65 192.03 1423.03 197.61C1416.4 203.19 1407.24 205.99 1395.53 205.99H1377.69L1377.68 205.98ZM1377.68 189.5H1395.86C1401.24 189.5 1405.34 188.24 1408.17 185.7C1410.99 183.17 1412.41 179.55 1412.41 174.85C1412.41 170.15 1410.99 166.1 1408.14 163.12C1405.29 160.14 1401.36 158.6 1396.34 158.51H1377.69V189.5H1377.68Z" fill="white"/>
<path d="M1521.65 142.02V207.06C1521.65 217.87 1518.26 226.41 1511.51 232.69C1504.75 238.98 1495.51 242.12 1483.81 242.12C1472.11 242.12 1463.12 239.07 1456.34 232.97C1449.56 226.87 1446.1 218.48 1445.96 207.81V142.03H1466.3V207.2C1466.3 213.67 1467.85 218.38 1470.94 221.34C1474.03 224.3 1478.32 225.78 1483.79 225.78C1495.22 225.78 1501.04 219.77 1501.21 207.74V142.02H1521.63H1521.65Z" fill="white"/>
<path d="M1538.33 240.77V142.03H1572.91C1584.9 142.03 1593.98 144.33 1600.17 148.91C1606.36 153.5 1609.46 160.23 1609.46 169.09C1609.46 173.93 1608.22 178.19 1605.73 181.87C1603.25 185.55 1599.79 188.26 1595.35 189.97C1600.41 191.24 1604.4 193.79 1607.32 197.63C1610.23 201.48 1611.69 206.17 1611.69 211.74C1611.69 221.24 1608.66 228.42 1602.6 233.31C1596.54 238.19 1587.91 240.68 1576.69 240.77H1538.31H1538.33ZM1558.68 183.39H1573.74C1584 183.21 1589.13 179.12 1589.13 171.12C1589.13 166.64 1587.83 163.42 1585.23 161.45C1582.63 159.48 1578.53 158.5 1572.92 158.5H1558.68V183.39ZM1558.68 197.77V224.42H1576.11C1580.9 224.42 1584.64 223.28 1587.33 220.99C1590.02 218.7 1591.37 215.55 1591.37 211.53C1591.37 202.49 1586.69 197.9 1577.33 197.77H1558.68Z" fill="white"/>
<path d="M1647.31 224.42H1690.51V240.76H1626.97V142.02H1647.31V224.42Z" fill="white"/>
<path d="M1723.8 240.77H1703.46V142.03H1723.8V240.77Z" fill="white"/>
<path d="M1820.17 207.87C1819.4 218.5 1815.48 226.86 1808.4 232.96C1801.32 239.06 1792 242.11 1780.43 242.11C1767.77 242.11 1757.81 237.85 1750.56 229.33C1743.31 220.81 1739.68 209.11 1739.68 194.24V188.2C1739.68 178.7 1741.35 170.34 1744.7 163.11C1748.05 155.88 1752.82 150.33 1759.04 146.46C1765.25 142.59 1772.48 140.66 1780.71 140.66C1792.1 140.66 1801.28 143.71 1808.24 149.82C1815.2 155.92 1819.23 164.49 1820.31 175.52H1799.97C1799.47 169.15 1797.69 164.52 1794.64 161.65C1791.59 158.78 1786.94 157.34 1780.71 157.34C1773.93 157.34 1768.85 159.77 1765.49 164.63C1762.12 169.49 1760.39 177.03 1760.3 187.25V194.71C1760.3 205.38 1761.92 213.18 1765.15 218.11C1768.38 223.04 1773.48 225.5 1780.44 225.5C1786.72 225.5 1791.41 224.07 1794.51 221.19C1797.6 218.32 1799.38 213.88 1799.83 207.86H1820.17V207.87Z" fill="white"/>
<path d="M834.07 373.62H813.729V274.88H834.07V373.62Z" fill="white"/>
<path d="M933.21 373.62H912.87L873.26 308.65V373.62H852.92V274.88H873.26L912.93 339.99V274.88H933.21V373.62Z" fill="white"/>
<path d="M1010.39 333.27H971.329V373.62H950.989V274.88H1015.28V291.36H971.329V316.86H1010.39V333.27Z" fill="white"/>
<path d="M1063.63 337.47H1047.42V373.62H1027.08V274.88H1063.77C1075.43 274.88 1084.43 277.48 1090.76 282.68C1097.09 287.88 1100.25 295.23 1100.25 304.72C1100.25 311.46 1098.8 317.08 1095.88 321.57C1092.97 326.07 1088.55 329.65 1082.62 332.32L1103.98 372.67V373.62H1082.14L1063.63 337.47ZM1047.42 320.99H1063.83C1068.94 320.99 1072.9 319.69 1075.69 317.09C1078.5 314.49 1079.9 310.91 1079.9 306.34C1079.9 301.77 1078.58 298.02 1075.93 295.35C1073.28 292.68 1069.23 291.35 1063.75 291.35H1047.41V320.99H1047.42Z" fill="white"/>
<path d="M1171.45 353.27H1135.78L1129 373.62H1107.37L1144.13 274.88H1162.98L1199.94 373.62H1178.31L1171.46 353.27H1171.45ZM1141.27 336.79H1165.96L1153.55 299.83L1141.27 336.79Z" fill="white"/>
<path d="M1260.36 347.71C1260.36 343.87 1259 340.92 1256.29 338.86C1253.58 336.8 1248.7 334.63 1241.64 332.35C1234.59 330.07 1229 327.82 1224.89 325.6C1213.67 319.54 1208.07 311.38 1208.07 301.12C1208.07 295.79 1209.57 291.03 1212.58 286.84C1215.59 282.65 1219.91 279.39 1225.54 277.04C1231.17 274.69 1237.49 273.51 1244.49 273.51C1251.49 273.51 1257.83 274.79 1263.34 277.34C1268.85 279.89 1273.14 283.5 1276.19 288.16C1279.24 292.82 1280.77 298.11 1280.77 304.03H1260.43C1260.43 299.51 1259 295.99 1256.15 293.48C1253.3 290.97 1249.3 289.72 1244.15 289.72C1239 289.72 1235.31 290.77 1232.56 292.87C1229.8 294.97 1228.42 297.74 1228.42 301.18C1228.42 304.39 1230.04 307.08 1233.27 309.25C1236.5 311.42 1241.26 313.45 1247.54 315.35C1259.11 318.83 1267.54 323.15 1272.84 328.3C1278.13 333.46 1280.77 339.87 1280.77 347.56C1280.77 356.1 1277.53 362.81 1271.07 367.67C1264.6 372.53 1255.9 374.96 1244.96 374.96C1237.36 374.96 1230.45 373.57 1224.21 370.79C1217.97 368.01 1213.21 364.2 1209.93 359.36C1206.65 354.52 1205.02 348.92 1205.02 342.54H1225.43C1225.43 353.44 1231.94 358.89 1244.96 358.89C1249.79 358.89 1253.57 357.91 1256.28 355.94C1258.99 353.97 1260.35 351.23 1260.35 347.7L1260.36 347.71Z" fill="white"/>
<path d="M1368.87 291.36H1338.62V373.62H1318.28V291.36H1288.44V274.88H1368.87V291.36Z" fill="white"/>
<path d="M1417.01 337.47H1400.8V373.62H1380.46V274.88H1417.15C1428.81 274.88 1437.81 277.48 1444.14 282.68C1450.47 287.88 1453.63 295.23 1453.63 304.72C1453.63 311.46 1452.18 317.08 1449.26 321.57C1446.35 326.07 1441.93 329.65 1436 332.32L1457.36 372.67V373.62H1435.52L1417.01 337.47ZM1400.8 320.99H1417.21C1422.32 320.99 1426.28 319.69 1429.07 317.09C1431.88 314.49 1433.28 310.91 1433.28 306.34C1433.28 301.77 1431.96 298.02 1429.31 295.35C1426.66 292.68 1422.61 291.35 1417.13 291.35H1400.79V320.99H1400.8Z" fill="white"/>
<path d="M1543.83 274.88V339.92C1543.83 350.73 1540.44 359.27 1533.69 365.55C1526.93 371.84 1517.69 374.98 1505.99 374.98C1494.29 374.98 1485.3 371.93 1478.52 365.83C1471.74 359.73 1468.28 351.34 1468.14 340.67V274.89H1488.48V340.06C1488.48 346.53 1490.03 351.24 1493.12 354.2C1496.22 357.16 1500.5 358.64 1505.97 358.64C1517.4 358.64 1523.22 352.63 1523.39 340.6V274.88H1543.81H1543.83Z" fill="white"/>
<path d="M1638.02 340.73C1637.25 351.36 1633.33 359.72 1626.25 365.82C1619.17 371.92 1609.85 374.97 1598.28 374.97C1585.62 374.97 1575.66 370.71 1568.41 362.19C1561.16 353.67 1557.53 341.97 1557.53 327.1V321.06C1557.53 311.56 1559.2 303.2 1562.55 295.97C1565.9 288.74 1570.67 283.19 1576.89 279.32C1583.1 275.45 1590.33 273.52 1598.56 273.52C1609.95 273.52 1619.13 276.57 1626.09 282.68C1633.05 288.78 1637.08 297.35 1638.16 308.38H1617.82C1617.32 302.01 1615.54 297.38 1612.49 294.51C1609.44 291.64 1604.79 290.2 1598.56 290.2C1591.78 290.2 1586.7 292.63 1583.34 297.49C1579.97 302.35 1578.24 309.89 1578.15 320.11V327.57C1578.15 338.24 1579.77 346.04 1583 350.97C1586.23 355.9 1591.33 358.36 1598.29 358.36C1604.57 358.36 1609.26 356.93 1612.36 354.05C1615.45 351.18 1617.23 346.74 1617.68 340.72H1638.02V340.73Z" fill="white"/>
<path d="M1723.75 291.36H1693.5V373.62H1673.16V291.36H1643.32V274.88H1723.75V291.36Z" fill="white"/>
<path d="M1810.08 274.88V339.92C1810.08 350.73 1806.69 359.27 1799.94 365.55C1793.18 371.84 1783.94 374.98 1772.24 374.98C1760.54 374.98 1751.55 371.93 1744.77 365.83C1737.99 359.73 1734.53 351.34 1734.39 340.67V274.89H1754.73V340.06C1754.73 346.53 1756.28 351.24 1759.37 354.2C1762.46 357.16 1766.75 358.64 1772.22 358.64C1783.65 358.64 1789.47 352.63 1789.64 340.6V274.88H1810.06H1810.08Z" fill="white"/>
<path d="M1863.31 337.47H1847.1V373.62H1826.76V274.88H1863.45C1875.11 274.88 1884.11 277.48 1890.44 282.68C1896.77 287.88 1899.93 295.23 1899.93 304.72C1899.93 311.46 1898.48 317.08 1895.56 321.57C1892.65 326.07 1888.23 329.65 1882.3 332.32L1903.66 372.67V373.62H1881.82L1863.31 337.47ZM1847.1 320.99H1863.51C1868.62 320.99 1872.58 319.69 1875.37 317.09C1878.18 314.49 1879.58 310.91 1879.58 306.34C1879.58 301.77 1878.26 298.02 1875.61 295.35C1872.96 292.68 1868.91 291.35 1863.43 291.35H1847.09V320.99H1847.1Z" fill="white"/>
<path d="M1974.8 330.82H1935.74V357.27H1981.58V373.61H1915.39V274.87H1981.44V291.35H1935.73V314.88H1974.79V330.81L1974.8 330.82Z" fill="white"/>
<path d="M458.89 142.59L399.23 54.5601L531.201 120.9" stroke="#3DC6F1" stroke-width="2.47" stroke-miterlimit="10" stroke-linecap="round"/>
<path d="M404.53 43.6802H387.13C386.34 43.6802 385.7 44.3204 385.7 45.1102V62.5102C385.7 63.2999 386.34 63.9402 387.13 63.9402H404.53C405.32 63.9402 405.96 63.2999 405.96 62.5102V45.1102C405.96 44.3204 405.32 43.6802 404.53 43.6802Z" fill="#FBB04C"/>
<path d="M463.51 563.84L291.56 430.5L161.37 439.16" stroke="#3DC6F1" stroke-width="2.47" stroke-miterlimit="10" stroke-linecap="round"/>
<path d="M498.21 519L450.24 430.75" stroke="#3DC6F1" stroke-width="2.47" stroke-miterlimit="10" stroke-linecap="round"/>
<path d="M187.73 507.82L161.37 439.16L112.59 473.2L151.16 505.35L187.73 507.82Z" stroke="#3DC6F1" stroke-width="2.47" stroke-miterlimit="10" stroke-linecap="round"/>
<path d="M250.06 317.45L187.9 501.07L288.06 432.85" stroke="#3DC6F1" stroke-width="2.47" stroke-miterlimit="10" stroke-linecap="round"/>
<path d="M520.132 338.663C520.835 329.251 513.774 321.051 504.362 320.348C494.95 319.645 486.75 326.706 486.047 336.118C485.344 345.53 492.405 353.73 501.817 354.433C511.229 355.136 519.429 348.075 520.132 338.663Z" fill="white" stroke="#3DC6F1" stroke-width="2.47" stroke-miterlimit="10"/>
<path d="M462.756 432.363C463.274 425.424 458.068 419.378 451.129 418.86C444.189 418.342 438.144 423.547 437.626 430.487C437.108 437.426 442.313 443.472 449.253 443.99C456.192 444.508 462.238 439.303 462.756 432.363Z" fill="white" stroke="#3DC6F1" stroke-width="2.47" stroke-miterlimit="10"/>
<path d="M413.684 319.141C414.92 302.591 402.505 288.173 385.955 286.937C369.405 285.701 354.987 298.116 353.751 314.666C352.515 331.216 364.93 345.635 381.48 346.87C398.03 348.106 412.449 335.691 413.684 319.141Z" fill="white" stroke="#3DC6F1" stroke-width="2.47" stroke-miterlimit="10"/>
<path d="M309.749 431.837C310.489 421.924 303.053 413.287 293.139 412.547C283.226 411.807 274.589 419.243 273.849 429.157C273.109 439.07 280.545 447.707 290.459 448.447C300.372 449.187 309.009 441.751 309.749 431.837Z" fill="white" stroke="#3DC6F1" stroke-width="2.47" stroke-miterlimit="10"/>
<path d="M456.94 437.44H443.55L449.89 424.05L456.94 437.44Z" fill="#FBB04C"/>
<path d="M395.57 303.72H370.06V329.23H395.57V303.72Z" fill="#40C4F1"/>
<path d="M300.21 421.84H282.89V439.16H300.21V421.84Z" fill="#FBB04C"/>
<path d="M427.987 380.695C428.406 375.077 424.192 370.183 418.574 369.763C412.957 369.344 408.063 373.558 407.643 379.176C407.224 384.793 411.438 389.687 417.055 390.107C422.673 390.526 427.567 386.312 427.987 380.695Z" fill="white" stroke="#3DC6F1" stroke-width="2.47" stroke-miterlimit="10"/>
<path d="M422.62 375.07H412.8V384.89H422.62V375.07Z" fill="#40C4F1"/>
<path d="M512.92 326.12H493.63C492.757 326.12 492.05 326.827 492.05 327.7V346.99C492.05 347.863 492.757 348.57 493.63 348.57H512.92C513.792 348.57 514.5 347.863 514.5 346.99V327.7C514.5 326.827 513.792 326.12 512.92 326.12Z" fill="#FBB04C"/>
<path d="M488.319 265.808C488.86 258.571 483.431 252.267 476.194 251.726C468.957 251.186 462.652 256.615 462.112 263.852C461.572 271.088 467 277.393 474.237 277.933C481.474 278.474 487.779 273.045 488.319 265.808Z" fill="white" stroke="#3DC6F1" stroke-width="2.47" stroke-miterlimit="10"/>
<path d="M482.13 270.59H468.74L475.08 257.2L482.13 270.59Z" fill="#FBB04C"/>
<path d="M269.231 314.722C270.044 303.828 261.872 294.338 250.978 293.524C240.084 292.711 230.594 300.883 229.78 311.777C228.967 322.67 237.139 332.161 248.033 332.974C258.927 333.788 268.417 325.616 269.231 314.722Z" fill="white" stroke="#3DC6F1" stroke-width="2.47" stroke-miterlimit="10"/>
<path d="M261.8 322.87H237.43L248.97 298.5L261.8 322.87Z" fill="#40C4F1"/>
<path d="M181.4 511.82H196.42V496.8H181.4V511.82Z" fill="#FBB04C"/>
<path d="M606.21 190.58H591.49V205.3H606.21V190.58Z" fill="#FBB04C"/>
<path d="M474.36 153.33H445.71L459.27 124.68L474.36 153.33Z" fill="#3DC6F1"/>
<path d="M492.26 527.34H508.55V511.05H492.26V527.34Z" fill="#FBB04C"/>
<path d="M546.82 180.36V165.63L534.06 158.26L521.3 165.63V180.36L534.06 187.72L546.82 180.36Z" fill="#FBB04C"/>
</svg>
